<?xml version="1.0" encoding="UTF-8" standalone="no"?>
<!DOCTYPE svg PUBLIC "-//W3C//DTD SVG 1.1//EN" "http://www.w3.org/Graphics/SVG/1.1/DTD/svg11.dtd">
<svg xmlns="http://www.w3.org/2000/svg" version="1.1" viewBox="0.00 0.00 452.00 451.00">
<path fill="#9aafb1" d="
  M 136.75 313.62
  L 136.75 335.86
  A 0.39 0.38 90.0 0 1 136.37 336.25
  L 79.81 336.25
  A 0.32 0.31 90.0 0 1 79.50 335.93
  L 79.50 52.85
  A 0.60 0.60 0.0 0 1 80.10 52.25
  L 138.94 52.25
  A 0.55 0.55 0.0 0 1 139.49 52.80
  L 139.49 150.71
  A 0.38 0.38 0.0 0 0 140.13 150.99
  C 142.29 148.98 144.34 146.77 146.78 144.77
  Q 165.53 129.45 192.28 127.47
  Q 216.85 125.66 237.96 133.10
  C 292.36 152.28 312.75 209.07 300.70 262.47
  C 292.09 300.56 263.32 328.62 225.19 336.83
  Q 203.56 341.49 180.79 337.44
  Q 154.40 332.75 137.27 313.42
  A 0.30 0.30 0.0 0 0 136.75 313.62
  Z
  M 138.79 233.19
  C 138.79 264.71 157.96 290.07 191.03 290.08
  C 224.10 290.09 243.28 264.73 243.28 233.21
  C 243.29 201.68 224.12 176.32 191.05 176.32
  C 157.98 176.31 138.80 201.66 138.79 233.19
  Z"
/>
<path fill="#9aafb1" d="
  M 334.36 264.69
  C 361.43 264.76 376.82 288.87 369.76 313.64
  C 365.22 329.60 350.33 339.24 334.18 339.20
  C 318.03 339.16 303.19 329.45 298.72 313.47
  C 291.79 288.66 307.30 264.62 334.36 264.69
  Z"
/>
<path fill="#9aafb1" d="
  M 85.57 368.86
  Q 88.98 366.99 91.29 366.81
  C 102.51 365.92 107.34 373.12 106.84 383.61
  C 106.38 393.20 100.54 399.01 90.53 398.48
  Q 87.40 398.31 84.40 396.45
  A 0.56 0.55 -60.5 0 0 83.61 396.68
  Q 82.71 398.47 80.00 397.68
  A 0.70 0.70 0.0 0 1 79.50 397.01
  L 79.50 353.78
  A 0.28 0.28 0.0 0 1 79.78 353.50
  L 84.74 353.50
  A 0.26 0.26 0.0 0 1 85.00 353.76
  L 85.00 368.52
  A 0.39 0.38 75.5 0 0 85.57 368.86
  Z
  M 85.00 374.93
  L 85.00 390.90
  A 1.14 1.14 0.0 0 0 85.56 391.88
  C 90.71 394.90 98.02 394.13 100.37 387.91
  Q 102.42 382.50 100.37 377.08
  C 98.00 370.79 90.48 370.10 85.50 373.92
  A 1.27 1.27 0.0 0 0 85.00 374.93
  Z"
/>
<path fill="#9aafb1" d="
  M 311.37 380.52
  L 324.46 397.26
  A 0.31 0.31 0.0 0 1 324.21 397.76
  L 317.76 397.76
  A 0.31 0.31 0.0 0 1 317.52 397.64
  L 307.53 384.86
  A 0.31 0.31 0.0 0 0 307.05 384.84
  L 303.83 388.37
  A 0.31 0.31 0.0 0 0 303.75 388.58
  L 303.75 397.44
  A 0.31 0.31 0.0 0 1 303.44 397.75
  L 298.55 397.75
  A 0.31 0.31 0.0 0 1 298.24 397.44
  L 298.24 353.81
  A 0.31 0.31 0.0 0 1 298.55 353.50
  L 303.44 353.50
  A 0.31 0.31 0.0 0 1 303.75 353.81
  L 303.75 380.46
  A 0.31 0.31 0.0 0 0 304.29 380.67
  L 316.21 367.60
  A 0.31 0.31 0.0 0 1 316.44 367.50
  L 322.20 367.50
  A 0.31 0.31 0.0 0 1 322.43 368.02
  L 311.39 380.12
  A 0.31 0.31 0.0 0 0 311.37 380.52
  Z"
/>
<path fill="#9aafb1" d="
  M 362.75 359.19
  L 362.75 366.96
  A 0.54 0.54 0.0 0 0 363.29 367.50
  L 370.90 367.50
  A 0.35 0.35 0.0 0 1 371.25 367.85
  L 371.25 371.43
  A 0.33 0.32 -0.0 0 1 370.92 371.75
  L 363.36 371.75
  A 0.60 0.60 0.0 0 0 362.76 372.35
  Q 362.69 388.01 362.86 389.58
  C 363.35 394.29 368.15 393.79 371.35 392.61
  A 0.17 0.17 0.0 0 1 371.57 392.79
  L 370.82 397.51
  A 0.49 0.49 0.0 0 1 370.48 397.90
  Q 366.24 399.25 361.88 397.87
  C 357.87 396.61 357.22 391.54 357.24 387.75
  Q 357.28 378.62 357.22 372.35
  A 0.60 0.60 0.0 0 0 356.62 371.75
  L 354.09 371.75
  A 0.60 0.60 0.0 0 1 353.49 371.15
  L 353.49 368.06
  A 0.57 0.56 -90.0 0 1 354.05 367.49
  L 356.72 367.49
  A 0.52 0.52 0.0 0 0 357.24 366.97
  L 357.24 359.17
  A 0.41 0.41 0.0 0 1 357.65 358.76
  L 362.32 358.76
  A 0.43 0.43 0.0 0 1 362.75 359.19
  Z"
/>
<path fill="#9aafb1" d="
  M 111.52 375.04
  A 0.28 0.28 0.0 0 1 111.08 374.78
  L 111.86 369.88
  A 1.54 1.52 -9.8 0 1 112.65 368.78
  Q 117.88 365.94 123.85 366.92
  Q 132.91 368.41 133.12 378.36
  Q 133.33 388.10 133.19 397.01
  A 0.79 0.79 0.0 0 1 132.40 397.78
  L 129.63 397.78
  A 0.89 0.88 -0.3 0 1 128.74 396.91
  Q 128.73 396.25 128.51 395.80
  A 0.57 0.56 -30.9 0 0 127.66 395.59
  C 121.35 400.43 109.13 399.88 109.08 389.49
  C 109.03 380.35 120.19 378.74 127.01 378.23
  A 0.60 0.59 82.2 0 0 127.54 377.52
  C 125.88 369.29 116.52 371.27 111.52 375.04
  Z
  M 126.98 382.20
  C 121.87 382.80 112.95 384.27 114.85 390.70
  C 116.40 395.99 124.28 393.73 127.30 391.23
  A 1.18 1.17 70.2 0 0 127.72 390.33
  L 127.72 382.87
  A 0.67 0.67 0.0 0 0 126.98 382.20
  Z"
/>
<path fill="#9aafb1" d="
  M 143.78 371.15
  Q 148.33 366.58 154.54 366.77
  A 0.47 0.47 0.0 0 1 155.00 367.24
  L 155.00 371.49
  A 0.49 0.49 0.0 0 1 154.54 371.98
  Q 148.80 372.27 143.94 375.99
  A 1.12 1.10 72.0 0 0 143.50 376.88
  L 143.50 397.31
  A 0.44 0.44 0.0 0 1 143.06 397.75
  L 138.47 397.76
  A 0.47 0.47 0.0 0 1 138.00 397.29
  L 138.00 368.11
  A 0.61 0.61 0.0 0 1 138.61 367.50
  L 141.96 367.50
  A 0.92 0.91 -0.0 0 1 142.88 368.41
  L 142.88 370.78
  A 0.53 0.53 0.0 0 0 143.78 371.15
  Z"
/>
<path fill="#9aafb1" d="
  M 182.19 382.81
  A 0.67 0.67 0.0 0 1 181.52 383.46
  L 161.83 383.53
  A 0.53 0.53 0.0 0 0 161.30 384.12
  C 162.28 395.65 172.71 394.90 180.37 390.66
  A 0.07 0.07 0.0 0 1 180.47 390.73
  L 179.64 396.07
  A 0.62 0.62 0.0 0 1 179.30 396.54
  Q 174.79 398.69 169.49 398.45
  C 158.53 397.99 154.35 389.08 155.88 379.36
  Q 157.93 366.32 171.08 366.74
  C 179.70 367.02 182.43 375.69 182.19 382.81
  Z
  M 161.86 379.25
  L 177.10 379.25
  A 0.13 0.13 0.0 0 0 177.23 379.12
  L 177.23 379.02
  A 7.73 7.53 0.0 0 0 169.50 371.49
  L 169.46 371.49
  A 7.73 7.53 -0.0 0 0 161.73 379.02
  L 161.73 379.12
  A 0.13 0.13 0.0 0 0 161.86 379.25
  Z"
/>
<path fill="#9aafb1" d="
  M 226.01 397.44
  A 0.32 0.32 0.0 0 1 225.69 397.76
  L 220.87 397.76
  A 0.39 0.39 0.0 0 1 220.48 397.37
  Q 220.55 382.48 220.45 378.03
  C 220.29 370.70 212.24 370.91 207.98 374.41
  A 1.34 1.32 -20.1 0 0 207.50 375.43
  L 207.50 397.32
  A 0.44 0.44 0.0 0 1 207.06 397.76
  L 202.49 397.76
  A 0.49 0.48 0.0 0 1 202.00 397.28
  L 202.00 368.08
  A 0.59 0.58 0.0 0 1 202.59 367.50
  L 205.87 367.50
  A 0.94 0.94 0.0 0 1 206.81 368.44
  L 206.81 368.90
  A 0.51 0.51 0.0 0 0 207.63 369.31
  C 212.91 365.44 219.75 365.76 224.08 370.50
  A 0.54 0.54 0.0 0 0 224.87 370.51
  Q 229.31 365.91 235.52 366.82
  Q 244.48 368.14 244.64 377.84
  Q 244.86 390.93 244.74 397.31
  A 0.47 0.46 0.6 0 1 244.27 397.76
  L 239.70 397.76
  A 0.47 0.47 0.0 0 1 239.23 397.29
  Q 239.25 388.12 239.23 380.51
  C 239.22 376.53 238.43 372.48 233.67 372.08
  Q 229.58 371.73 226.12 374.53
  A 0.30 0.27 -21.7 0 0 226.01 374.75
  L 226.01 397.44
  Z"
/>
<path fill="#9aafb1" d="
  M 250.93 375.02
  A 0.28 0.28 0.0 0 1 250.49 374.76
  L 251.28 369.87
  A 1.54 1.51 -9.7 0 1 252.07 368.77
  Q 257.30 365.95 263.26 366.95
  Q 272.30 368.46 272.48 378.39
  Q 272.66 388.11 272.50 397.01
  A 0.79 0.79 0.0 0 1 271.71 397.77
  L 268.95 397.77
  A 0.89 0.88 -0.2 0 1 268.06 396.90
  Q 268.05 396.24 267.83 395.79
  A 0.56 0.56 0.0 0 0 266.98 395.58
  C 260.67 400.39 248.48 399.81 248.45 389.44
  C 248.43 380.31 259.57 378.74 266.38 378.24
  A 0.60 0.59 82.4 0 0 266.91 377.54
  C 265.28 369.32 255.93 371.27 250.93 375.02
  Z
  M 266.29 382.23
  C 261.21 382.83 252.34 384.30 254.23 390.69
  C 255.78 395.95 263.61 393.70 266.61 391.21
  A 1.17 1.16 70.2 0 0 267.03 390.32
  L 267.02 382.90
  A 0.67 0.66 86.9 0 0 266.29 382.23
  Z"
/>
<path fill="#9aafb1" d="
  M 282.13 370.79
  A 0.53 0.53 0.0 0 0 283.03 371.16
  Q 287.58 366.59 293.79 366.78
  A 0.47 0.47 0.0 0 1 294.25 367.25
  L 294.25 371.50
  A 0.49 0.49 0.0 0 1 293.79 371.99
  Q 288.05 372.28 283.19 376.00
  A 1.12 1.10 72.0 0 0 282.75 376.89
  L 282.74 397.32
  A 0.44 0.44 0.0 0 1 282.30 397.76
  L 277.71 397.77
  A 0.47 0.47 0.0 0 1 277.24 397.30
  L 277.25 368.12
  A 0.61 0.61 0.0 0 1 277.86 367.51
  L 281.21 367.51
  A 0.92 0.91 0.0 0 1 282.13 368.42
  L 282.13 370.79
  Z"
/>
<path fill="#9aafb1" d="
  M 350.37 383.50
  L 330.69 383.50
  A 0.53 0.53 0.0 0 0 330.16 384.08
  C 331.10 395.61 341.52 394.90 349.20 390.69
  A 0.07 0.07 0.0 0 1 349.30 390.76
  L 348.45 396.09
  A 0.62 0.62 0.0 0 1 348.10 396.56
  Q 343.59 398.69 338.29 398.44
  C 327.34 397.94 323.20 389.02 324.76 379.31
  Q 326.86 366.28 340.00 366.75
  C 348.61 367.06 351.31 375.74 351.04 382.85
  A 0.67 0.67 0.0 0 1 350.37 383.50
  Z
  M 330.71 379.24
  L 345.97 379.26
  A 0.13 0.13 0.0 0 0 346.10 379.13
  L 346.10 379.04
  A 7.72 7.56 0.1 0 0 338.40 371.47
  L 338.32 371.47
  A 7.72 7.56 0.1 0 0 330.58 379.02
  L 330.58 379.11
  A 0.13 0.13 0.0 0 0 330.71 379.24
  Z"
/>
</svg>
