<?xml version="1.0" encoding="UTF-8" standalone="no"?>
<!DOCTYPE svg PUBLIC "-//W3C//DTD SVG 1.1//EN" "http://www.w3.org/Graphics/SVG/1.1/DTD/svg11.dtd">
<svg xmlns="http://www.w3.org/2000/svg" version="1.1" viewBox="0.00 0.00 311.00 162.00">
<path fill="#5486c1" d="
  M 0.00 99.47
  L 0.00 96.83
  Q 2.46 90.21 6.35 84.35
  A 0.85 0.85 0.0 0 0 6.11 83.17
  Q 1.87 80.36 4.58 75.57
  C 8.33 68.92 14.92 59.42 21.50 53.27
  C 26.82 48.29 32.25 55.64 35.66 60.11
  Q 40.62 66.60 43.81 71.49
  C 46.60 75.75 49.65 79.63 44.82 83.21
  A 0.81 0.80 -32.0 0 0 44.58 84.23
  C 47.43 89.78 55.85 100.09 43.77 102.07
  Q 39.50 102.77 36.21 102.62
  A 2.67 2.67 0.0 0 1 33.60 99.85
  L 33.61 99.65
  A 2.67 2.67 0.0 0 1 36.21 97.08
  C 39.02 97.00 42.19 97.12 43.50 96.19
  A 1.15 1.14 59.6 0 0 43.89 94.67
  L 37.84 83.78
  A 1.63 0.74 -87.8 0 1 37.75 83.56
  Q 36.90 81.06 40.49 79.47
  A 1.20 1.20 0.0 0 0 41.04 77.77
  C 37.06 71.06 32.07 63.32 26.13 58.26
  A 1.04 1.03 -44.8 0 0 24.78 58.26
  C 18.87 63.29 13.77 71.04 9.97 77.51
  A 1.56 1.55 -63.0 0 0 10.68 79.71
  C 13.71 81.05 14.00 82.87 12.27 85.51
  Q 8.08 91.91 6.12 96.38
  C 5.42 97.99 5.66 99.57 7.72 99.95
  C 11.83 100.72 17.12 99.90 21.23 98.90
  A 0.36 0.36 0.0 0 0 21.29 98.22
  Q 19.58 97.45 19.13 96.21
  C 18.48 94.42 20.22 92.23 22.22 92.45
  Q 23.01 92.54 24.61 93.80
  C 28.36 96.74 32.58 98.77 29.77 103.65
  Q 27.95 106.81 26.38 109.31
  A 1.99 1.91 -0.7 0 1 25.71 109.97
  C 24.22 110.84 22.52 110.55 21.52 108.80
  Q 20.85 107.62 22.34 104.75
  A 0.28 0.28 0.0 0 0 22.03 104.35
  C 15.61 105.80 2.17 109.11 0.00 99.47
  Z"
/>
<path fill="#5486c1" d="
  M 173.71 78.04
  Q 179.04 72.95 185.11 75.48
  Q 189.81 77.43 190.56 83.61
  Q 190.89 86.38 190.64 101.31
  A 0.63 0.62 -89.5 0 1 190.02 101.93
  L 181.10 101.93
  A 0.65 0.65 0.0 0 1 180.45 101.28
  L 180.45 86.94
  A 3.36 3.35 -0.4 0 0 177.04 83.59
  L 176.73 83.60
  A 3.44 3.44 0.0 0 0 173.35 87.04
  L 173.35 101.30
  A 0.63 0.63 0.0 0 1 172.72 101.93
  L 163.60 101.93
  A 0.57 0.57 0.0 0 1 163.03 101.36
  L 163.03 63.39
  A 0.87 0.87 0.0 0 1 163.90 62.52
  L 172.78 62.52
  A 0.40 0.39 90.0 0 1 173.17 62.92
  L 173.17 77.81
  A 0.32 0.32 0.0 0 0 173.71 78.04
  Z"
/>
<path fill="#5486c1" d="
  M 78.41 83.18
  Q 78.41 85.50 78.33 86.71
  A 0.64 0.64 0.0 0 1 77.69 87.31
  L 66.39 87.31
  A 0.54 0.54 0.0 0 0 65.85 87.85
  L 65.85 92.50
  A 0.59 0.59 0.0 0 0 66.44 93.09
  L 81.18 93.09
  A 0.34 0.34 0.0 0 1 81.52 93.43
  L 81.52 101.49
  A 0.36 0.35 -90.0 0 1 81.17 101.85
  L 55.34 101.85
  A 0.33 0.32 89.0 0 1 55.02 101.54
  Q 55.00 100.75 55.00 83.18
  Q 55.00 65.61 55.01 64.83
  A 0.33 0.32 -89.0 0 1 55.33 64.52
  L 81.16 64.51
  A 0.36 0.35 90.0 0 1 81.51 64.87
  L 81.52 72.93
  A 0.34 0.34 0.0 0 1 81.18 73.27
  L 66.44 73.28
  A 0.59 0.59 0.0 0 0 65.85 73.87
  L 65.85 78.52
  A 0.54 0.54 0.0 0 0 66.39 79.06
  L 77.69 79.05
  A 0.64 0.64 0.0 0 1 78.33 79.65
  Q 78.41 80.86 78.41 83.18
  Z"
/>
<path fill="#5486c1" d="
  M 210.76 78.75
  Q 213.55 78.76 216.34 78.71
  A 0.67 0.66 89.7 0 0 216.99 78.04
  L 216.99 65.22
  A 0.65 0.65 0.0 0 1 217.64 64.57
  L 227.06 64.57
  A 0.72 0.72 0.0 0 1 227.78 65.21
  Q 227.78 65.23 227.77 83.26
  Q 227.77 101.30 227.76 101.32
  A 0.72 0.72 0.0 0 1 227.05 101.95
  L 217.63 101.94
  A 0.65 0.65 0.0 0 1 216.98 101.29
  L 216.99 88.47
  A 0.67 0.66 -89.7 0 0 216.34 87.81
  Q 213.55 87.76 210.76 87.76
  Q 207.96 87.76 205.17 87.80
  A 0.67 0.66 89.7 0 0 204.52 88.47
  L 204.52 101.29
  A 0.65 0.65 0.0 0 1 203.87 101.94
  L 194.45 101.94
  A 0.72 0.72 0.0 0 1 193.74 101.31
  Q 193.73 101.29 193.74 83.25
  Q 193.75 65.22 193.75 65.19
  A 0.72 0.72 0.0 0 1 194.46 64.56
  L 203.88 64.57
  A 0.65 0.65 0.0 0 1 204.53 65.22
  L 204.52 78.04
  A 0.67 0.66 -89.7 0 0 205.17 78.71
  Q 207.96 78.75 210.76 78.75
  Z"
/>
<path fill="#5486c1" d="
  M 158.05 83.41
  L 154.01 83.06
  A 1.37 1.36 2.3 0 0 152.53 84.42
  L 152.53 90.75
  A 2.84 2.83 -83.8 0 0 154.75 93.52
  Q 156.99 94.01 158.27 93.21
  A 0.86 0.85 -13.7 0 1 159.58 94.00
  L 159.06 100.16
  A 1.87 1.87 0.0 0 1 157.54 101.84
  C 151.66 102.90 144.96 103.24 142.84 97.03
  C 141.67 93.62 142.46 86.96 142.30 83.84
  A 0.62 0.62 0.0 0 0 141.68 83.25
  L 138.91 83.25
  A 0.52 0.52 0.0 0 1 138.39 82.73
  L 138.39 75.80
  A 0.67 0.67 0.0 0 1 139.12 75.13
  L 141.58 75.34
  A 0.65 0.64 -87.6 0 0 142.28 74.69
  L 142.28 69.54
  A 0.73 0.73 0.0 0 1 143.01 68.81
  L 152.07 68.81
  A 0.46 0.46 0.0 0 1 152.53 69.27
  L 152.53 74.76
  A 0.45 0.45 0.0 0 0 152.98 75.21
  L 158.84 75.21
  A 0.94 0.92 -87.7 0 1 159.76 76.22
  L 159.24 82.40
  A 1.11 1.10 -85.0 0 1 158.05 83.41
  Z"
/>
<path fill="#5486c1" d="
  M 113.02 88.51
  Q 113.02 94.88 113.17 100.48
  A 1.44 1.44 0.0 0 1 111.73 101.96
  L 105.74 101.96
  A 1.70 1.70 0.0 0 1 104.04 100.26
  L 104.04 98.80
  A 0.41 0.41 0.0 0 0 103.29 98.56
  Q 99.72 103.48 92.99 102.42
  C 86.02 101.33 82.55 95.44 82.51 88.70
  C 82.47 81.97 85.85 76.03 92.81 74.85
  Q 99.53 73.71 103.16 78.59
  A 0.41 0.41 0.0 0 0 103.91 78.34
  L 103.89 76.88
  A 1.70 1.70 0.0 0 1 105.57 75.15
  L 111.56 75.08
  A 1.44 1.44 0.0 0 1 113.02 76.54
  Q 112.94 82.14 113.02 88.51
  Z
  M 97.8910 83.1500
  A 5.43 5.00 -90.2 0 0 92.9100 88.5975
  A 5.43 5.00 -90.2 0 0 97.9290 94.0100
  A 5.43 5.00 -90.2 0 0 102.9100 88.5625
  A 5.43 5.00 -90.2 0 0 97.8910 83.1500
  Z"
/>
<path fill="#5486c1" d="
  M 126.48 78.38
  Q 126.49 78.37 127.59 76.99
  C 129.44 74.67 133.36 74.30 136.08 75.06
  A 0.42 0.41 15.1 0 1 136.37 75.56
  L 133.95 84.79
  A 0.56 0.56 0.0 0 1 133.24 85.18
  C 128.29 83.66 126.46 85.24 126.50 90.36
  Q 126.56 100.11 126.48 101.35
  A 0.62 0.62 0.0 0 1 125.86 101.93
  L 116.81 101.93
  A 0.57 0.57 0.0 0 1 116.24 101.36
  L 116.24 76.25
  A 1.06 1.05 90.0 0 1 117.29 75.19
  L 124.77 75.19
  A 0.84 0.84 0.0 0 1 125.61 75.97
  L 125.79 78.01
  A 0.47 0.46 72.9 0 0 126.48 78.38
  Z"
/>
<path fill="#5486c1" d="
  M 241.00 91.53
  C 243.75 95.72 251.37 94.60 255.86 93.06
  A 0.11 0.11 0.0 0 1 256.01 93.18
  L 255.40 100.49
  A 0.47 0.46 83.0 0 1 255.10 100.88
  C 248.19 103.46 239.56 103.54 233.83 98.42
  C 230.15 95.14 229.07 88.87 230.57 84.19
  C 233.22 75.91 242.04 73.07 249.89 75.32
  Q 259.29 78.01 258.17 90.31
  A 0.88 0.88 0.0 0 1 257.29 91.11
  L 241.22 91.11
  A 0.27 0.27 0.0 0 0 241.00 91.53
  Z
  M 241.05 86.08
  L 248.33 86.06
  A 0.22 0.22 0.0 0 0 248.55 85.84
  L 248.55 85.70
  A 3.79 3.78 -0.2 0 0 244.74 81.93
  L 244.60 81.93
  A 3.79 3.78 -0.2 0 0 240.83 85.72
  L 240.83 85.86
  A 0.22 0.22 0.0 0 0 241.05 86.08
  Z"
/>
<path fill="#5486c1" d="
  M 270.23 78.10
  A 0.46 0.46 0.0 0 0 270.92 78.46
  Q 270.93 78.45 272.02 77.07
  C 273.85 74.76 277.75 74.37 280.46 75.11
  A 0.41 0.41 0.0 0 1 280.75 75.61
  L 278.38 84.81
  A 0.56 0.55 -74.0 0 1 277.68 85.20
  C 272.74 83.71 270.93 85.29 270.99 90.39
  Q 271.10 100.09 271.02 101.33
  A 0.62 0.62 0.0 0 1 270.41 101.91
  L 261.40 101.95
  A 0.57 0.57 0.0 0 1 260.83 101.38
  L 260.72 76.39
  A 1.06 1.05 89.7 0 1 261.76 75.33
  L 269.20 75.30
  A 0.84 0.84 0.0 0 1 270.04 76.07
  L 270.23 78.10
  Z"
/>
<path fill="#5486c1" d="
  M 311.00 86.89
  L 311.00 90.13
  C 309.02 106.66 283.23 106.81 280.59 91.12
  C 278.79 80.41 287.31 73.79 297.23 74.63
  Q 309.04 75.62 311.00 86.89
  Z
  M 295.6900 83.0900
  A 5.48 4.88 -90.0 0 0 290.8100 88.5700
  A 5.48 4.88 -90.0 0 0 295.6900 94.0500
  A 5.48 4.88 -90.0 0 0 300.5700 88.5700
  A 5.48 4.88 -90.0 0 0 295.6900 83.0900
  Z"
/>
</svg>
