<?xml version="1.0" encoding="UTF-8" standalone="no"?>
<!DOCTYPE svg PUBLIC "-//W3C//DTD SVG 1.1//EN" "http://www.w3.org/Graphics/SVG/1.1/DTD/svg11.dtd">
<svg xmlns="http://www.w3.org/2000/svg" version="1.1" viewBox="0.00 0.00 300.00 112.00">
<path fill="#93ad66" d="
  M 0.81 31.89
  A 0.47 0.47 0.0 0 1 0.34 31.42
  L 0.34 11.09
  A 11.14 10.72 0.0 0 1 11.48 0.37
  L 99.40 0.37
  A 11.14 10.72 0.0 0 1 110.54 11.09
  L 110.54 31.42
  A 0.47 0.47 0.0 0 1 110.07 31.89
  L 0.81 31.89
  Z"
/>
<path fill="#93ad66" d="
  M 132.68 31.76
  L 131.58 36.26
  A 0.08 0.08 0.0 0 0 131.67 36.36
  L 145.52 33.94
  A 0.26 0.26 0.0 0 1 145.83 34.20
  L 145.83 43.28
  A 0.79 0.79 0.0 0 1 145.23 44.05
  Q 132.41 47.27 119.28 47.78
  A 0.72 0.71 5.8 0 1 118.56 46.90
  L 126.13 16.02
  A 0.59 0.59 0.0 0 0 125.28 15.36
  Q 123.78 16.14 123.35 15.24
  A 0.65 0.56 40.6 0 1 123.30 14.92
  L 124.66 5.58
  A 0.94 0.94 0.0 0 1 125.37 4.80
  Q 138.59 1.50 150.98 0.28
  A 0.85 0.84 3.0 0 1 151.89 1.29
  L 150.02 10.31
  A 1.13 1.13 0.0 0 1 149.03 11.22
  L 137.78 12.50
  A 0.37 0.37 0.0 0 0 137.46 12.78
  L 135.56 20.53
  A 0.17 0.17 0.0 0 0 135.76 20.73
  L 146.59 18.84
  A 0.19 0.18 2.0 0 1 146.80 19.06
  L 144.72 29.14
  A 0.39 0.39 0.0 0 1 144.41 29.45
  L 133.03 31.43
  A 0.45 0.44 -87.9 0 0 132.68 31.76
  Z"
/>
<path fill="#93ad66" d="
  M 167.75 19.28
  Q 160.42 23.65 160.10 32.24
  Q 160.02 34.33 162.17 35.56
  C 165.78 37.61 169.44 35.38 172.91 33.89
  A 1.09 1.09 0.0 0 1 174.42 34.70
  L 175.65 41.78
  A 1.65 1.65 0.0 0 1 174.89 43.48
  C 168.05 47.71 160.02 50.47 153.25 44.51
  Q 148.01 39.90 148.95 33.29
  Q 150.98 19.03 162.92 10.67
  C 167.59 7.41 179.73 4.02 180.44 13.43
  A 0.68 0.46 -52.7 0 1 180.43 13.62
  L 177.36 26.72
  A 0.45 0.44 -86.3 0 1 176.97 27.07
  L 167.69 28.12
  A 0.84 0.84 0.0 0 1 166.77 27.12
  L 168.31 19.67
  A 0.38 0.37 -9.7 0 0 167.75 19.28
  Z"
/>
<path fill="#93ad66" d="
  M 202.6468 9.8828
  A 20.09 13.12 -65.2 0 1 206.1300 33.6232
  A 20.09 13.12 -65.2 0 1 185.7932 46.3572
  A 20.09 13.12 -65.2 0 1 182.3100 22.6168
  A 20.09 13.12 -65.2 0 1 202.6468 9.8828
  Z
  M 196.6001 19.9892
  A 8.65 3.20 -73.2 0 0 191.0366 27.3451
  A 8.65 3.20 -73.2 0 0 191.5999 36.5508
  A 8.65 3.20 -73.2 0 0 197.1634 29.1949
  A 8.65 3.20 -73.2 0 0 196.6001 19.9892
  Z"
/>
<path fill="#93ad66" d="
  M 1.53 42.39
  L 97.38 42.39
  A 0.47 0.47 0.0 0 1 97.85 42.86
  L 97.85 74.94
  A 0.49 0.48 0.0 0 1 97.36 75.42
  L 31.84 75.42
  A 0.42 0.41 -90.0 0 0 31.43 75.84
  L 31.43 107.68
  A 0.45 0.45 0.0 0 1 30.98 108.13
  L 9.54 108.13
  A 1.19 0.85 -27.9 0 1 9.24 108.09
  Q 4.33 107.02 2.02 103.19
  Q 0.77 101.13 0.79 95.09
  Q 0.87 46.49 0.77 43.17
  A 0.76 0.76 0.0 0 1 1.53 42.39
  Z"
/>
<path fill="#5b5858" d="
  M 176.28 55.63
  L 176.28 65.10
  A 0.98 0.98 0.0 0 1 175.41 66.07
  L 164.88 67.26
  A 1.41 1.40 -83.7 0 0 163.71 68.20
  L 160.96 75.90
  A 0.66 0.66 0.0 0 0 161.69 76.77
  L 170.42 75.24
  A 1.03 1.03 0.0 0 1 171.62 76.36
  L 170.88 84.07
  A 1.77 1.76 -2.4 0 1 169.42 85.65
  L 159.25 87.43
  A 0.88 0.87 -89.0 0 0 158.54 88.12
  L 156.09 99.97
  A 0.56 0.55 -87.7 0 1 155.62 100.41
  L 146.21 101.47
  A 0.96 0.96 0.0 0 1 145.17 100.29
  L 152.37 70.92
  A 0.53 0.53 0.0 0 0 151.67 70.30
  Q 151.23 70.47 150.76 70.70
  A 0.50 0.50 0.0 0 1 150.04 70.25
  L 150.04 60.92
  A 1.33 1.33 0.0 0 1 151.01 59.64
  Q 163.03 56.29 175.61 55.02
  A 0.62 0.61 -2.6 0 1 176.28 55.63
  Z"
/>
<path fill="#5b5858" d="
  M 229.80 98.80
  A 0.24 0.24 0.0 0 0 230.25 98.92
  Q 238.98 82.32 245.68 64.01
  A 0.96 0.94 6.5 0 1 246.46 63.40
  L 260.96 61.76
  A 0.59 0.59 0.0 0 1 261.61 62.34
  C 261.82 76.16 261.39 85.11 262.89 96.64
  A 1.33 1.33 0.0 0 1 261.95 98.08
  L 252.36 101.00
  A 0.80 0.80 0.0 0 1 251.33 100.32
  L 250.82 95.81
  A 0.51 0.51 0.0 0 0 250.22 95.37
  L 243.24 96.59
  A 0.86 0.86 0.0 0 0 242.65 97.00
  L 240.11 101.39
  A 0.77 0.76 17.0 0 1 239.38 101.77
  Q 235.48 101.39 230.53 100.50
  Q 230.16 100.43 229.48 99.94
  A 0.93 0.92 -30.6 0 0 228.81 99.77
  L 206.05 102.34
  A 0.56 0.56 0.0 0 1 205.44 101.68
  L 210.60 76.70
  A 0.52 0.52 0.0 0 0 209.81 76.15
  Q 209.11 76.58 208.45 76.57
  A 0.64 0.63 6.4 0 1 207.84 75.81
  L 209.91 65.81
  A 1.59 1.58 -89.1 0 1 211.18 64.57
  L 233.67 60.65
  A 0.64 0.63 82.3 0 1 234.42 61.23
  Q 234.76 65.45 233.57 71.10
  A 1.13 1.12 -88.8 0 1 232.67 71.97
  L 222.81 73.69
  A 1.06 1.04 0.3 0 0 221.97 74.51
  L 221.31 77.68
  A 0.46 0.46 0.0 0 0 221.84 78.22
  L 229.72 76.84
  A 0.26 0.26 0.0 0 1 230.03 77.09
  L 230.03 84.83
  A 0.99 0.98 -4.9 0 1 229.21 85.80
  L 219.77 87.45
  A 1.47 1.46 -89.1 0 0 218.59 88.60
  L 218.34 89.81
  A 0.60 0.59 -89.0 0 0 219.02 90.52
  L 229.13 88.75
  A 0.58 0.57 -4.7 0 1 229.80 89.31
  L 229.80 98.80
  Z
  M 246.74 88.87
  L 250.14 88.28
  A 0.97 0.96 85.0 0 0 250.93 87.33
  L 250.93 76.72
  A 0.14 0.13 55.3 0 0 250.67 76.67
  L 246.44 88.52
  A 0.27 0.27 0.0 0 0 246.74 88.87
  Z"
/>
<path fill="#5b5858" d="
  M 287.15 82.01
  L 291.64 96.81
  A 0.50 0.50 0.0 0 1 291.36 97.41
  L 281.63 101.70
  A 0.50 0.50 0.0 0 1 280.95 101.39
  L 278.95 94.80
  A 0.50 0.50 0.0 0 0 278.07 94.66
  L 272.37 102.65
  A 0.50 0.50 0.0 0 1 271.79 102.83
  L 263.40 99.84
  A 0.50 0.50 0.0 0 1 263.16 99.08
  L 275.16 82.25
  A 0.50 0.50 0.0 0 0 275.23 81.81
  L 270.74 67.01
  A 0.50 0.50 0.0 0 1 271.01 66.41
  L 280.75 62.11
  A 0.50 0.50 0.0 0 1 281.43 62.42
  L 283.43 69.02
  A 0.50 0.50 0.0 0 0 284.32 69.16
  L 290.01 61.16
  A 0.50 0.50 0.0 0 1 290.59 60.98
  L 298.99 63.98
  A 0.50 0.50 0.0 0 1 299.23 64.74
  L 287.22 81.57
  A 0.50 0.50 0.0 0 0 287.15 82.01
  Z"
/>
<path fill="#5b5858" d="
  M 176.70 71.60
  L 179.05 62.04
  A 0.74 0.74 0.0 0 1 179.68 61.48
  Q 181.97 61.21 190.02 61.68
  C 195.46 62.00 207.34 65.52 206.73 72.79
  C 206.30 77.88 200.62 82.28 196.09 84.96
  A 0.69 0.68 -25.2 0 0 195.79 85.79
  Q 197.70 90.88 201.49 94.84
  A 1.00 0.99 -44.4 0 1 201.47 96.23
  Q 197.77 99.92 192.74 102.55
  A 0.66 0.65 57.0 0 1 191.92 102.37
  Q 187.73 96.99 185.77 90.50
  A 0.51 0.50 42.5 0 0 184.79 90.54
  L 182.98 99.31
  A 1.82 1.82 0.0 0 1 181.41 100.74
  L 174.39 101.54
  A 1.23 1.23 0.0 0 1 173.05 100.07
  L 178.67 72.83
  A 0.43 0.43 0.0 0 0 178.20 72.31
  L 177.41 72.40
  A 0.65 0.65 0.0 0 1 176.70 71.60
  Z
  M 188.38 79.11
  Q 191.65 78.01 194.43 75.52
  A 1.18 1.18 0.0 0 0 194.15 73.57
  Q 192.12 72.62 189.65 72.42
  A 1.17 1.16 7.8 0 0 188.41 73.35
  L 187.40 78.24
  A 0.76 0.75 -3.4 0 0 188.38 79.11
  Z"
/>
<path fill="#5b5858" d="
  M 43.97 83.10
  A 0.51 0.51 0.0 0 1 44.48 82.59
  L 110.44 82.59
  A 0.46 0.46 0.0 0 1 110.90 83.05
  Q 110.80 92.86 110.92 101.28
  Q 111.01 107.42 106.59 110.30
  Q 103.69 112.18 96.63 111.83
  Q 95.66 111.78 44.35 111.82
  A 0.38 0.38 0.0 0 1 43.97 111.44
  L 43.97 83.10
  Z"
/>
</svg>
