<?xml version="1.0" encoding="UTF-8" standalone="no"?>
<!DOCTYPE svg PUBLIC "-//W3C//DTD SVG 1.1//EN" "http://www.w3.org/Graphics/SVG/1.1/DTD/svg11.dtd">
<svg xmlns="http://www.w3.org/2000/svg" version="1.1" viewBox="0.00 0.00 1080.00 1080.00">
<g stroke-width="2.00" fill="none" stroke-linecap="butt">
<path stroke="#7e8e7b" vector-effect="non-scaling-stroke" d="
  M 1001.91 407.01
  Q 1003.74 402.97 1004.73 401.27
  C 1007.08 397.26 1007.76 392.92 1007.82 389.02
  Q 1007.99 379.12 1007.82 375.45
  Q 1007.68 372.62 1006.21 370.04
  C 1001.77 362.26 996.56 355.71 988.76 351.27
  Q 982.03 347.44 972.78 346.51
  C 964.02 345.63 955.98 345.95 948.83 349.46
  C 944.22 351.72 939.59 354.23 935.92 358.05
  Q 933.68 360.38 931.79 365.36
  Q 927.31 377.13 927.92 388.48
  C 928.42 397.93 934.35 415.09 944.12 419.40
  Q 951.75 422.77 962.10 424.00
  C 969.63 424.89 975.42 423.90 982.76 422.22
  Q 991.23 420.28 997.27 413.26
  C 999.45 410.72 1000.88 409.29 1001.91 407.01"
/>
<path stroke="#7e8e7b" vector-effect="non-scaling-stroke" d="
  M 111.97 559.55
  A 0.58 0.58 0.0 0 0 112.55 560.13
  L 183.78 560.13
  A 0.73 0.73 0.0 0 0 184.51 559.40
  L 184.51 554.48
  A 0.74 0.73 -90.0 0 0 183.78 553.74
  C 178.27 553.76 171.66 553.70 166.27 551.81
  C 159.23 549.35 158.38 540.35 158.34 533.99
  Q 158.20 514.20 158.26 465.09
  A 0.42 0.42 0.0 0 1 158.77 464.68
  C 175.26 468.24 192.96 471.72 209.32 467.60
  C 237.86 460.42 252.76 434.57 247.10 406.07
  C 241.26 376.69 214.66 363.35 186.74 363.29
  Q 169.33 363.26 112.61 363.26
  A 0.62 0.61 0.0 0 0 111.99 363.87
  L 111.99 369.06
  A 0.66 0.66 0.0 0 0 112.67 369.72
  Q 119.24 369.49 126.64 370.87
  C 138.23 373.03 138.24 384.86 138.24 394.00
  Q 138.27 490.83 138.25 526.75
  C 138.24 537.87 138.31 550.43 124.76 552.77
  Q 118.76 553.81 112.62 553.69
  A 0.64 0.64 0.0 0 0 111.97 554.33
  L 111.97 559.55"
/>
<path stroke="#7e8e7b" vector-effect="non-scaling-stroke" d="
  M 499.37 493.56
  A 0.23 0.22 25.5 0 1 499.77 493.42
  Q 524.52 523.87 540.45 543.55
  Q 542.05 545.53 542.79 548.24
  Q 544.45 554.37 535.08 553.52
  A 0.64 0.64 0.0 0 0 534.38 554.16
  L 534.38 559.49
  A 0.64 0.63 -0.0 0 0 535.02 560.12
  L 591.07 560.12
  A 0.22 0.21 -0.0 0 0 591.29 559.91
  L 591.29 553.96
  A 0.31 0.30 1.0 0 0 590.99 553.66
  Q 585.90 553.58 583.73 553.01
  C 572.50 550.08 563.52 541.49 556.28 532.46
  Q 518.53 485.39 517.18 483.72
  A 0.48 0.48 0.0 0 1 517.22 483.06
  Q 542.95 458.49 548.85 452.78
  Q 563.75 438.33 584.10 439.34
  A 1.03 1.03 0.0 0 0 585.18 438.31
  L 585.18 433.55
  A 0.81 0.81 0.0 0 0 584.37 432.74
  L 532.96 432.74
  A 0.59 0.59 0.0 0 0 532.37 433.33
  L 532.37 438.49
  A 0.72 0.72 0.0 0 0 533.05 439.21
  C 537.12 439.44 544.04 439.36 541.29 445.58
  Q 540.28 447.85 537.61 450.36
  Q 502.98 482.81 500.07 485.57
  A 0.46 0.46 0.0 0 1 499.29 485.23
  L 499.29 364.56
  A 0.56 0.56 0.0 0 0 498.80 364.00
  Q 495.67 363.61 492.96 364.72
  Q 492.18 365.03 458.88 378.84
  A 0.62 0.62 0.0 0 0 458.53 379.63
  L 460.15 384.05
  A 0.79 0.79 0.0 0 0 461.16 384.52
  C 465.27 382.97 469.36 381.46 473.95 382.09
  C 478.73 382.75 480.52 387.59 480.55 392.01
  Q 480.66 413.65 480.61 536.94
  C 480.61 543.55 479.60 550.50 472.27 552.51
  Q 467.99 553.68 462.20 553.53
  A 0.82 0.81 0.7 0 0 461.36 554.34
  L 461.36 559.36
  A 0.77 0.76 0.0 0 0 462.13 560.12
  L 517.95 560.12
  A 0.70 0.70 0.0 0 0 518.65 559.42
  L 518.65 554.22
  A 0.70 0.70 0.0 0 0 517.90 553.52
  C 505.94 554.32 499.42 549.75 499.43 537.28
  Q 499.43 536.79 499.37 493.56"
/>
<path stroke="#7e8e7b" vector-effect="non-scaling-stroke" d="
  M 357.37 538.00
  A 1.03 1.03 0.0 0 0 355.64 537.66
  Q 347.95 546.13 343.07 547.45
  Q 337.93 548.83 336.72 544.79
  Q 335.23 539.82 335.22 531.26
  Q 335.22 530.03 335.29 470.51
  Q 335.30 457.18 333.71 452.23
  C 325.81 427.56 296.60 424.83 275.95 432.40
  C 264.29 436.68 253.62 445.86 251.17 458.42
  C 249.77 465.59 252.17 474.85 261.25 474.75
  C 269.74 474.65 272.41 466.51 272.62 459.45
  C 272.83 452.24 272.83 446.55 278.55 442.05
  C 283.56 438.10 290.80 437.24 297.16 438.00
  C 316.00 440.23 316.96 460.51 316.42 476.14
  A 0.92 0.92 0.0 0 1 315.79 476.97
  Q 293.57 484.41 272.64 495.87
  Q 267.87 498.47 260.77 504.22
  Q 244.93 517.04 247.42 536.54
  C 249.65 553.99 261.70 565.50 280.07 563.77
  C 293.56 562.50 305.58 553.33 315.81 544.59
  A 0.56 0.56 0.0 0 1 316.74 545.00
  Q 316.95 550.24 319.18 554.98
  C 328.94 575.66 349.39 556.05 358.11 545.02
  A 3.64 3.64 0.0 0 0 358.67 541.53
  L 357.37 538.00"
/>
<path stroke="#7e8e7b" vector-effect="non-scaling-stroke" d="
  M 455.61 507.49
  Q 455.17 509.86 453.66 514.64
  C 448.09 532.29 435.48 547.28 415.98 546.64
  C 400.27 546.12 388.42 534.86 382.29 521.11
  Q 374.19 502.94 375.37 481.44
  C 376.58 459.39 390.07 438.06 414.48 439.01
  Q 421.60 439.28 425.65 442.04
  C 431.17 445.79 431.97 451.63 432.92 458.06
  C 434.11 466.18 439.21 472.04 448.07 470.84
  C 455.44 469.84 458.61 464.28 457.85 457.24
  C 456.30 442.87 440.46 432.66 427.46 430.08
  Q 405.07 425.65 386.50 437.56
  C 358.41 455.57 354.60 494.60 362.76 523.61
  C 369.38 547.18 386.96 564.83 412.36 563.99
  C 442.19 563.01 458.07 537.25 461.63 510.26
  A 0.69 0.69 0.0 0 0 461.29 509.57
  L 456.77 506.96
  A 0.78 0.78 0.0 0 0 455.61 507.49"
/>
<path stroke="#7e8e7b" vector-effect="non-scaling-stroke" d="
  M 704.43 535.99
  A 0.22 0.21 -17.4 0 0 704.06 535.80
  C 699.76 540.40 692.56 549.26 685.53 547.66
  A 1.66 1.66 0.0 0 1 684.65 547.11
  C 682.16 544.13 681.89 537.86 681.88 534.50
  Q 681.78 494.27 681.91 469.56
  Q 681.97 458.12 680.49 453.09
  C 673.29 428.60 645.48 425.06 624.75 431.74
  C 612.87 435.57 602.10 443.83 598.41 455.84
  C 596.34 462.58 597.12 473.15 605.46 474.57
  Q 614.77 476.16 617.87 467.07
  Q 619.53 462.20 619.53 454.06
  C 619.53 443.86 627.87 438.47 637.53 437.93
  C 662.38 436.54 663.19 457.93 663.14 475.98
  A 1.10 1.09 -9.9 0 1 662.41 477.01
  Q 643.85 483.34 626.03 492.26
  C 611.18 499.69 594.24 511.25 593.74 529.74
  C 593.21 549.51 604.76 565.52 626.04 563.93
  Q 634.84 563.27 642.15 559.11
  Q 652.68 553.11 662.41 544.66
  A 0.46 0.45 65.1 0 1 663.16 544.94
  C 664.00 550.64 665.13 555.90 669.02 560.19
  C 679.26 571.47 697.21 554.91 703.64 546.38
  A 1.36 1.34 -31.3 0 0 703.90 545.33
  Q 703.26 541.38 704.43 535.99"
/>
<path stroke="#7e8e7b" vector-effect="non-scaling-stroke" d="
  M 730.32 513.33
  C 722.94 519.39 715.12 527.42 712.38 536.64
  C 709.35 546.86 715.20 550.44 723.02 554.56
  A 0.58 0.58 0.0 0 1 723.14 555.50
  Q 713.60 564.22 706.53 575.27
  C 701.65 582.90 697.64 591.76 703.47 600.29
  C 709.64 609.33 720.81 614.53 731.27 617.23
  Q 760.67 624.83 788.42 613.64
  C 805.92 606.59 825.49 589.16 823.18 568.18
  Q 821.34 551.54 805.09 546.04
  Q 795.33 542.74 785.73 542.51
  Q 767.07 542.07 757.25 541.67
  Q 745.93 541.21 737.78 539.72
  C 730.54 538.39 726.37 535.47 730.47 527.93
  Q 733.53 522.29 738.80 517.60
  A 1.00 1.00 0.0 0 1 739.77 517.41
  Q 748.75 520.48 760.45 519.88
  C 797.69 517.96 815.11 484.63 799.16 451.78
  A 0.50 0.50 0.0 0 1 799.61 451.06
  L 821.36 451.06
  A 0.49 0.49 0.0 0 0 821.85 450.57
  L 821.85 437.61
  A 0.65 0.64 88.3 0 0 821.17 436.96
  L 789.89 439.00
  A 3.94 3.90 -29.0 0 1 787.37 438.29
  Q 767.77 424.48 744.74 430.72
  C 721.67 436.98 708.86 457.31 711.09 480.97
  C 712.35 494.49 718.77 505.68 730.27 512.62
  A 0.44 0.44 0.0 0 1 730.32 513.33"
/>
<path stroke="#7e8e7b" vector-effect="non-scaling-stroke" d="
  M 928.08 481.92
  Q 928.48 469.91 923.89 458.34
  C 914.34 434.24 889.88 424.83 865.39 430.51
  C 827.35 439.31 817.91 483.54 824.15 516.38
  C 828.39 538.69 843.00 557.68 865.73 562.77
  C 899.84 570.42 922.91 542.30 927.39 511.87
  A 0.28 0.27 -71.8 0 0 927.26 511.60
  L 922.23 508.70
  A 0.26 0.26 0.0 0 0 921.85 508.86
  Q 919.43 519.12 914.26 527.74
  Q 903.85 545.07 883.75 545.80
  C 849.52 547.04 839.26 510.02 839.35 483.13
  A 0.51 0.51 0.0 0 1 839.86 482.63
  L 927.35 482.64
  A 0.74 0.73 -89.2 0 0 928.08 481.92"
/>
<path stroke="#7e8e7b" vector-effect="non-scaling-stroke" d="
  M 423.41 707.44
  L 423.41 648.78
  A 0.73 0.72 0.0 0 0 422.68 648.06
  L 417.73 648.06
  A 0.76 0.76 0.0 0 0 416.97 648.81
  C 416.87 658.09 416.10 669.20 405.12 671.86
  Q 399.87 673.14 394.75 673.20
  Q 380.94 673.36 358.09 673.22
  A 0.60 0.60 0.0 0 1 357.50 672.62
  L 357.50 599.11
  A 0.49 0.49 0.0 0 1 357.99 598.62
  Q 381.22 598.56 399.50 598.70
  C 414.10 598.81 428.33 600.22 435.38 614.62
  Q 439.09 622.17 441.36 630.95
  A 0.95 0.94 -7.0 0 0 442.28 631.66
  L 445.98 631.66
  A 0.71 0.71 0.0 0 0 446.69 630.92
  L 444.64 589.26
  A 0.67 0.66 88.6 0 0 443.98 588.62
  L 311.83 588.62
  A 0.59 0.59 0.0 0 0 311.24 589.21
  L 311.24 594.38
  A 0.66 0.66 0.0 0 0 311.93 595.04
  Q 320.40 594.70 327.32 596.68
  C 336.24 599.23 337.36 607.76 337.37 616.00
  Q 337.49 713.11 337.36 755.52
  Q 337.34 761.37 336.23 765.99
  C 334.45 773.44 328.82 775.62 321.82 776.36
  Q 315.88 776.98 312.05 776.82
  A 0.75 0.75 0.0 0 0 311.26 777.57
  L 311.26 782.43
  A 0.83 0.83 0.0 0 0 312.09 783.26
  L 382.93 783.26
  A 0.87 0.86 0.0 0 0 383.80 782.40
  L 383.80 777.86
  A 0.99 0.98 0.0 0 0 382.81 776.88
  Q 378.45 776.86 372.82 776.39
  C 365.74 775.80 359.59 773.74 358.41 766.06
  Q 357.47 759.95 357.48 753.00
  Q 357.52 719.10 357.49 683.06
  A 0.46 0.46 0.0 0 1 357.94 682.60
  Q 365.80 682.56 391.16 682.63
  C 401.52 682.66 413.14 683.21 415.79 695.49
  Q 417.06 701.38 416.93 707.40
  A 0.69 0.69 0.0 0 0 417.62 708.11
  L 422.74 708.11
  A 0.67 0.67 0.0 0 0 423.41 707.44"
/>
<path stroke="#7e8e7b" vector-effect="non-scaling-stroke" d="
  M 477.03 675.80
  A 0.22 0.22 0.0 0 1 476.63 675.68
  L 476.63 652.97
  A 0.66 0.66 0.0 0 0 475.96 652.31
  C 473.24 652.36 471.99 652.38 469.24 653.52
  Q 457.13 658.58 436.06 667.20
  A 1.23 1.21 -21.4 0 0 435.37 668.75
  L 436.66 672.28
  A 1.30 1.30 0.0 0 0 438.45 673.00
  Q 442.26 671.15 447.45 670.29
  Q 453.86 669.24 456.03 674.34
  Q 457.63 678.11 457.67 685.02
  Q 457.83 713.63 457.75 760.00
  C 457.74 767.68 457.17 774.88 448.19 776.20
  Q 442.59 777.02 439.22 776.94
  A 0.72 0.72 0.0 0 0 438.49 777.66
  L 438.49 782.66
  A 0.73 0.72 0.0 0 0 439.22 783.38
  L 499.07 783.38
  A 0.59 0.59 0.0 0 0 499.66 782.79
  L 499.66 777.68
  A 0.67 0.66 -89.6 0 0 499.01 777.01
  Q 493.35 776.90 487.57 776.16
  C 478.51 774.98 476.48 770.62 476.49 762.00
  Q 476.50 745.50 476.50 693.88
  A 1.40 1.26 -41.9 0 1 476.53 693.60
  Q 477.04 691.68 478.96 688.47
  C 482.19 683.05 488.35 673.85 493.92 672.19
  C 499.27 670.59 503.91 674.73 507.41 676.08
  C 513.38 678.39 521.90 676.65 524.96 670.40
  C 527.00 666.23 525.96 660.27 522.93 657.05
  C 516.02 649.70 504.15 651.98 496.34 656.92
  Q 484.94 664.12 477.03 675.80"
/>
<path stroke="#7e8e7b" vector-effect="non-scaling-stroke" d="
  M 744.88 705.42
  Q 745.28 693.41 740.70 681.84
  C 731.14 657.74 706.69 648.32 682.19 653.99
  C 644.15 662.80 634.71 707.02 640.94 739.87
  C 645.18 762.18 659.78 781.17 682.51 786.27
  C 716.62 793.93 739.70 765.80 744.18 735.37
  A 0.28 0.27 -71.8 0 0 744.05 735.10
  L 739.02 732.20
  A 0.26 0.26 0.0 0 0 738.64 732.36
  Q 736.22 742.62 731.05 751.24
  Q 720.64 768.58 700.53 769.30
  C 666.30 770.53 656.05 733.51 656.15 706.62
  A 0.51 0.51 0.0 0 1 656.66 706.12
  L 744.15 706.14
  A 0.74 0.73 -89.2 0 0 744.88 705.42"
/>
<path stroke="#7e8e7b" vector-effect="non-scaling-stroke" d="
  M 628.87 705.41
  Q 629.27 693.40 624.68 681.83
  C 615.12 657.73 590.66 648.32 566.17 654.00
  C 528.13 662.81 518.70 707.04 524.94 739.88
  C 529.18 762.19 543.79 781.18 566.52 786.27
  C 600.63 793.92 623.70 765.79 628.18 735.36
  A 0.28 0.27 -71.8 0 0 628.05 735.09
  L 623.02 732.19
  A 0.26 0.26 0.0 0 0 622.64 732.35
  Q 620.22 742.61 615.05 751.23
  Q 604.64 768.57 584.54 769.30
  C 550.31 770.54 540.05 733.52 540.14 706.63
  A 0.51 0.51 0.0 0 1 540.65 706.13
  L 628.14 706.13
  A 0.74 0.73 -89.2 0 0 628.87 705.41"
/>
<path stroke="#7e8e7b" vector-effect="non-scaling-stroke" d="
  M 964.36 354.93
  A 0.94 0.93 -49.2 0 0 964.29 353.87
  Q 963.91 353.37 963.65 352.58
  A 1.53 1.50 -41.8 0 1 963.72 351.48
  Q 964.33 350.19 964.33 348.54
  A 0.41 0.41 0.0 0 0 963.75 348.16
  Q 963.64 348.21 962.86 348.86
  C 961.31 350.13 960.74 348.88 959.22 349.25
  Q 957.56 349.66 956.91 351.63
  A 1.52 1.52 0.0 0 0 958.11 353.61
  Q 959.76 353.87 961.26 354.28
  Q 962.44 354.61 963.04 357.49
  A 0.21 0.20 44.7 0 0 963.44 357.49
  Q 963.73 356.00 964.36 354.93"
/>
<path stroke="#7e8e7b" vector-effect="non-scaling-stroke" d="
  M 977.46 420.35
  A 0.30 0.29 20.7 0 0 977.69 420.85
  Q 986.05 420.35 992.28 415.02
  Q 997.67 410.41 999.95 406.18
  Q 1001.03 404.18 1003.97 398.21
  Q 1004.30 397.55 1004.80 394.98
  A 0.61 0.60 14.1 0 0 1004.37 394.28
  Q 1002.87 393.85 1002.00 393.02
  A 4.00 3.95 -78.7 0 1 1001.02 391.53
  L 998.45 384.52
  A 1.84 1.77 -50.2 0 1 998.38 383.55
  Q 999.39 378.25 1003.11 375.21
  A 2.63 2.62 56.7 0 0 1003.78 371.96
  C 997.31 359.50 987.63 350.67 973.00 348.77
  A 1.18 1.18 0.0 0 0 971.94 349.20
  Q 971.30 349.98 970.05 350.11
  A 0.42 0.42 0.0 0 0 969.68 350.49
  Q 969.63 350.98 969.99 351.23
  A 0.52 0.52 0.0 0 0 970.53 351.26
  Q 971.60 350.67 972.68 350.56
  A 0.89 0.88 -10.2 0 1 973.63 351.22
  C 974.38 354.15 977.61 354.42 978.13 357.06
  C 978.66 359.79 978.12 362.52 974.47 361.10
  A 0.56 0.56 0.0 0 0 973.71 361.67
  Q 973.92 363.97 972.51 364.72
  C 970.27 365.91 969.94 366.91 967.99 368.89
  A 1.43 1.40 69.0 0 0 967.58 369.84
  C 967.48 372.92 965.79 374.20 963.85 376.15
  A 0.78 0.77 53.1 0 0 963.72 377.07
  Q 964.72 378.93 963.44 380.47
  A 1.17 1.16 -48.5 0 1 961.73 380.58
  Q 960.17 379.10 960.09 377.47
  A 0.80 0.80 0.0 0 0 959.35 376.71
  Q 956.01 376.46 954.46 380.10
  A 1.22 1.22 0.0 0 0 956.00 381.72
  L 958.55 380.79
  A 0.94 0.93 -24.9 0 1 959.69 381.20
  L 961.96 385.13
  A 0.43 0.38 32.3 0 1 962.02 385.34
  L 962.20 388.10
  A 1.25 1.25 0.0 0 0 963.94 389.17
  Q 965.31 388.58 966.42 387.51
  A 1.55 1.51 20.0 0 1 967.33 387.10
  C 970.72 386.79 973.39 389.01 975.85 389.19
  A 2.76 2.73 -21.1 0 1 977.54 389.93
  Q 979.15 391.43 980.97 391.98
  A 1.85 1.82 -13.1 0 1 981.79 392.48
  L 984.20 395.04
  A 1.51 1.41 80.8 0 0 984.56 395.32
  C 987.04 396.66 993.16 399.46 990.29 402.45
  Q 988.31 404.51 988.09 407.10
  C 987.91 409.25 987.32 411.28 985.17 411.92
  Q 983.67 412.37 982.90 413.58
  Q 980.58 417.24 977.46 420.35"
/>
<path stroke="#7e8e7b" vector-effect="non-scaling-stroke" d="
  M 960.14 385.89
  Q 958.91 384.94 958.37 383.99
  A 0.88 0.87 75.3 0 0 957.61 383.54
  L 954.47 383.54
  A 1.31 1.30 -11.0 0 1 953.26 382.73
  C 951.22 377.75 956.19 373.22 961.12 374.75
  A 1.36 1.34 39.9 0 0 962.12 374.67
  Q 966.19 372.61 965.72 368.85
  A 1.17 1.15 68.0 0 1 966.16 367.79
  Q 968.39 366.11 970.04 364.02
  Q 970.31 363.68 970.88 363.42
  Q 971.61 363.09 971.78 363.01
  A 0.65 0.65 0.0 0 0 972.14 362.25
  L 971.81 361.04
  A 0.87 0.87 0.0 0 1 972.03 360.22
  Q 973.75 358.44 976.40 359.28
  A 0.49 0.48 -76.6 0 0 977.02 358.89
  C 977.49 355.99 973.20 355.21 972.87 353.53
  A 0.40 0.39 -26.1 0 0 972.22 353.31
  Q 971.40 354.00 969.78 353.36
  A 1.07 1.06 1.4 0 1 969.16 352.72
  Q 968.77 351.55 967.44 350.27
  A 0.72 0.72 0.0 0 0 966.31 350.44
  C 965.71 351.53 966.50 353.12 966.99 354.09
  A 1.30 1.28 51.1 0 1 966.85 355.47
  Q 965.56 357.08 965.53 358.94
  A 1.00 0.99 -12.7 0 1 964.95 359.84
  Q 963.65 360.43 962.45 359.85
  A 1.19 1.11 0.1 0 1 961.96 359.39
  L 960.82 357.43
  A 2.96 2.96 0.0 0 0 958.76 355.98
  Q 953.31 355.00 954.94 350.54
  A 0.55 0.54 -88.9 0 0 954.26 349.83
  Q 946.33 352.47 937.93 359.17
  A 1.34 1.34 0.0 0 0 937.87 361.22
  Q 939.22 362.43 938.97 365.00
  Q 938.72 367.47 938.32 370.33
  A 0.85 0.85 0.0 0 0 938.93 371.27
  L 943.25 372.44
  A 3.82 3.70 -16.4 0 1 944.66 373.18
  Q 949.08 376.94 950.17 381.45
  A 2.90 2.89 87.3 0 0 952.57 383.64
  Q 956.68 384.25 959.85 386.27
  A 0.24 0.24 0.0 0 0 960.18 386.21
  L 960.19 386.20
  A 0.24 0.22 37.5 0 0 960.14 385.89"
/>
<path stroke="#7e8e7b" vector-effect="non-scaling-stroke" d="
  M 963.07 392.30
  L 962.30 392.15
  A 0.74 0.65 -14.9 0 1 962.02 392.01
  L 957.85 388.22
  A 3.31 3.29 72.9 0 0 956.39 387.44
  C 954.07 386.86 948.90 385.76 948.03 383.25
  Q 946.36 378.38 943.56 375.80
  A 2.52 2.43 -13.1 0 0 942.71 375.29
  C 939.78 374.22 935.29 374.13 936.07 369.77
  Q 936.61 366.77 936.82 363.68
  A 0.73 0.73 0.0 0 0 935.43 363.34
  C 930.51 374.52 928.54 387.88 932.77 399.55
  Q 933.77 402.33 936.46 407.55
  C 939.40 413.27 942.78 416.80 948.76 418.83
  C 954.20 420.67 959.73 421.49 966.16 422.33
  A 0.52 0.51 9.0 0 0 966.73 421.92
  L 969.02 410.50
  A 1.68 1.67 21.3 0 0 968.24 408.74
  Q 964.04 406.21 962.64 400.75
  Q 961.87 397.75 964.05 394.83
  A 1.61 1.60 23.9 0 0 963.07 392.30"
/>
<path stroke="#7e8e7b" vector-effect="non-scaling-stroke" d="
  M 1005.06 377.56
  Q 1003.10 378.81 1001.94 381.54
  Q 1001.16 383.39 1002.33 386.42
  Q 1003.97 390.63 1004.49 391.44
  A 0.55 0.55 0.0 0 0 1005.51 391.14
  L 1005.51 377.81
  A 0.29 0.29 0.0 0 0 1005.06 377.56"
/>
<path stroke="#7e8e7b" vector-effect="non-scaling-stroke" d="
  M 969.14 422.22
  Q 972.68 422.43 974.35 421.42
  A 1.87 1.80 -1.9 0 0 975.03 420.72
  Q 975.83 419.20 981.16 412.27
  C 982.45 410.59 983.57 410.02 984.73 409.35
  A 2.49 2.48 -15.1 0 0 985.97 407.20
  Q 985.97 403.61 988.52 400.85
  A 0.84 0.84 0.0 0 0 988.27 399.53
  Q 983.46 397.13 980.65 394.17
  A 3.64 3.55 78.1 0 0 979.34 393.29
  Q 977.56 392.60 976.45 391.52
  A 1.83 1.81 65.7 0 0 975.15 391.02
  Q 974.42 391.05 969.64 389.08
  Q 967.87 388.34 966.25 390.33
  A 1.34 1.34 0.0 0 0 966.00 391.54
  Q 966.71 394.11 965.26 396.17
  C 963.59 398.54 965.21 402.31 966.71 404.28
  Q 967.30 405.04 970.16 407.16
  A 1.93 1.89 -83.3 0 1 970.77 407.95
  Q 971.41 409.50 970.96 411.49
  Q 969.57 417.49 968.77 421.75
  A 0.39 0.39 0.0 0 0 969.14 422.22"
/>
<path stroke="#7e8e7b" vector-effect="non-scaling-stroke" d="
  M 158.25 376.70
  L 158.25 454.71
  A 0.92 0.91 -84.2 0 0 158.98 455.61
  Q 172.11 458.28 186.47 459.21
  Q 207.12 460.55 217.33 443.24
  Q 222.59 434.33 223.14 423.97
  C 224.28 401.97 216.18 380.66 192.73 375.25
  C 183.00 373.00 168.98 374.44 158.68 376.19
  A 0.52 0.51 85.4 0 0 158.25 376.70"
/>
<path stroke="#7e8e7b" vector-effect="non-scaling-stroke" d="
  M 316.18 486.39
  Q 300.58 491.79 286.47 499.94
  C 275.96 506.01 265.81 515.17 266.53 528.24
  C 267.33 542.90 278.43 552.59 293.29 547.27
  C 301.56 544.31 308.87 538.89 316.17 533.45
  A 1.10 1.10 0.0 0 0 316.61 532.57
  L 316.61 486.70
  A 0.33 0.32 80.5 0 0 316.18 486.39"
/>
<path stroke="#7e8e7b" vector-effect="non-scaling-stroke" d="
  M 662.54 486.33
  Q 646.94 491.76 632.84 499.94
  C 622.33 506.03 612.19 515.22 612.94 528.29
  C 613.76 542.96 624.89 552.64 639.75 547.29
  C 648.02 544.31 655.32 538.87 662.62 533.42
  A 1.10 1.10 0.0 0 0 663.05 532.53
  L 662.97 486.64
  A 0.33 0.32 80.4 0 0 662.54 486.33"
/>
<path stroke="#7e8e7b" vector-effect="non-scaling-stroke" d="
  M 730.96 463.50
  C 729.15 481.63 734.32 510.92 758.15 512.10
  C 777.35 513.05 784.51 498.35 785.06 481.75
  C 785.67 463.00 780.58 438.05 757.28 436.79
  C 741.82 435.96 732.34 449.72 730.96 463.50"
/>
<path stroke="#7e8e7b" vector-effect="non-scaling-stroke" d="
  M 732.30 558.73
  Q 724.08 566.51 718.79 575.54
  Q 714.78 582.37 717.06 588.17
  C 719.95 595.50 729.88 600.82 737.67 603.11
  C 755.84 608.44 776.26 607.95 793.65 599.90
  C 802.76 595.68 811.97 587.70 813.42 577.28
  C 814.76 567.70 808.08 563.43 799.66 561.86
  C 787.46 559.59 775.66 560.09 760.50 560.07
  Q 746.28 560.05 733.72 558.28
  A 1.75 1.73 27.1 0 0 732.30 558.73"
/>
<path stroke="#7e8e7b" vector-effect="non-scaling-stroke" d="
  M 840.39 472.87
  Q 855.38 472.85 894.97 472.88
  C 901.60 472.89 905.92 472.63 905.07 464.94
  C 903.47 450.35 893.49 440.97 878.92 439.22
  C 859.04 436.83 842.26 452.97 839.90 472.31
  A 0.50 0.49 -86.4 0 0 840.39 472.87"
/>
<path stroke="#7e8e7b" vector-effect="non-scaling-stroke" d="
  M 657.08 696.38
  Q 672.07 696.36 711.66 696.40
  C 718.29 696.41 722.61 696.15 721.76 688.46
  C 720.16 673.87 710.18 664.48 695.61 662.73
  C 675.73 660.34 658.95 676.48 656.59 695.82
  A 0.50 0.49 -86.4 0 0 657.08 696.38"
/>
<path stroke="#7e8e7b" vector-effect="non-scaling-stroke" d="
  M 541.08 696.38
  Q 556.07 696.36 595.67 696.40
  C 602.30 696.41 606.62 696.15 605.77 688.46
  C 604.17 673.87 594.19 664.48 579.62 662.73
  C 559.74 660.34 542.95 676.48 540.59 695.82
  A 0.50 0.49 -86.4 0 0 541.08 696.38"
/>
</g>
<path fill="#25412a" d="
  M 1080.00 0.00
  L 1080.00 1080.00
  L 0.00 1080.00
  L 0.00 0.00
  L 1080.00 0.00
  Z
  M 1001.91 407.01
  Q 1003.74 402.97 1004.73 401.27
  C 1007.08 397.26 1007.76 392.92 1007.82 389.02
  Q 1007.99 379.12 1007.82 375.45
  Q 1007.68 372.62 1006.21 370.04
  C 1001.77 362.26 996.56 355.71 988.76 351.27
  Q 982.03 347.44 972.78 346.51
  C 964.02 345.63 955.98 345.95 948.83 349.46
  C 944.22 351.72 939.59 354.23 935.92 358.05
  Q 933.68 360.38 931.79 365.36
  Q 927.31 377.13 927.92 388.48
  C 928.42 397.93 934.35 415.09 944.12 419.40
  Q 951.75 422.77 962.10 424.00
  C 969.63 424.89 975.42 423.90 982.76 422.22
  Q 991.23 420.28 997.27 413.26
  C 999.45 410.72 1000.88 409.29 1001.91 407.01
  Z
  M 111.97 559.55
  A 0.58 0.58 0.0 0 0 112.55 560.13
  L 183.78 560.13
  A 0.73 0.73 0.0 0 0 184.51 559.40
  L 184.51 554.48
  A 0.74 0.73 -90.0 0 0 183.78 553.74
  C 178.27 553.76 171.66 553.70 166.27 551.81
  C 159.23 549.35 158.38 540.35 158.34 533.99
  Q 158.20 514.20 158.26 465.09
  A 0.42 0.42 0.0 0 1 158.77 464.68
  C 175.26 468.24 192.96 471.72 209.32 467.60
  C 237.86 460.42 252.76 434.57 247.10 406.07
  C 241.26 376.69 214.66 363.35 186.74 363.29
  Q 169.33 363.26 112.61 363.26
  A 0.62 0.61 0.0 0 0 111.99 363.87
  L 111.99 369.06
  A 0.66 0.66 0.0 0 0 112.67 369.72
  Q 119.24 369.49 126.64 370.87
  C 138.23 373.03 138.24 384.86 138.24 394.00
  Q 138.27 490.83 138.25 526.75
  C 138.24 537.87 138.31 550.43 124.76 552.77
  Q 118.76 553.81 112.62 553.69
  A 0.64 0.64 0.0 0 0 111.97 554.33
  L 111.97 559.55
  Z
  M 499.37 493.56
  A 0.23 0.22 25.5 0 1 499.77 493.42
  Q 524.52 523.87 540.45 543.55
  Q 542.05 545.53 542.79 548.24
  Q 544.45 554.37 535.08 553.52
  A 0.64 0.64 0.0 0 0 534.38 554.16
  L 534.38 559.49
  A 0.64 0.63 -0.0 0 0 535.02 560.12
  L 591.07 560.12
  A 0.22 0.21 -0.0 0 0 591.29 559.91
  L 591.29 553.96
  A 0.31 0.30 1.0 0 0 590.99 553.66
  Q 585.90 553.58 583.73 553.01
  C 572.50 550.08 563.52 541.49 556.28 532.46
  Q 518.53 485.39 517.18 483.72
  A 0.48 0.48 0.0 0 1 517.22 483.06
  Q 542.95 458.49 548.85 452.78
  Q 563.75 438.33 584.10 439.34
  A 1.03 1.03 0.0 0 0 585.18 438.31
  L 585.18 433.55
  A 0.81 0.81 0.0 0 0 584.37 432.74
  L 532.96 432.74
  A 0.59 0.59 0.0 0 0 532.37 433.33
  L 532.37 438.49
  A 0.72 0.72 0.0 0 0 533.05 439.21
  C 537.12 439.44 544.04 439.36 541.29 445.58
  Q 540.28 447.85 537.61 450.36
  Q 502.98 482.81 500.07 485.57
  A 0.46 0.46 0.0 0 1 499.29 485.23
  L 499.29 364.56
  A 0.56 0.56 0.0 0 0 498.80 364.00
  Q 495.67 363.61 492.96 364.72
  Q 492.18 365.03 458.88 378.84
  A 0.62 0.62 0.0 0 0 458.53 379.63
  L 460.15 384.05
  A 0.79 0.79 0.0 0 0 461.16 384.52
  C 465.27 382.97 469.36 381.46 473.95 382.09
  C 478.73 382.75 480.52 387.59 480.55 392.01
  Q 480.66 413.65 480.61 536.94
  C 480.61 543.55 479.60 550.50 472.27 552.51
  Q 467.99 553.68 462.20 553.53
  A 0.82 0.81 0.7 0 0 461.36 554.34
  L 461.36 559.36
  A 0.77 0.76 0.0 0 0 462.13 560.12
  L 517.95 560.12
  A 0.70 0.70 0.0 0 0 518.65 559.42
  L 518.65 554.22
  A 0.70 0.70 0.0 0 0 517.90 553.52
  C 505.94 554.32 499.42 549.75 499.43 537.28
  Q 499.43 536.79 499.37 493.56
  Z
  M 357.37 538.00
  A 1.03 1.03 0.0 0 0 355.64 537.66
  Q 347.95 546.13 343.07 547.45
  Q 337.93 548.83 336.72 544.79
  Q 335.23 539.82 335.22 531.26
  Q 335.22 530.03 335.29 470.51
  Q 335.30 457.18 333.71 452.23
  C 325.81 427.56 296.60 424.83 275.95 432.40
  C 264.29 436.68 253.62 445.86 251.17 458.42
  C 249.77 465.59 252.17 474.85 261.25 474.75
  C 269.74 474.65 272.41 466.51 272.62 459.45
  C 272.83 452.24 272.83 446.55 278.55 442.05
  C 283.56 438.10 290.80 437.24 297.16 438.00
  C 316.00 440.23 316.96 460.51 316.42 476.14
  A 0.92 0.92 0.0 0 1 315.79 476.97
  Q 293.57 484.41 272.64 495.87
  Q 267.87 498.47 260.77 504.22
  Q 244.93 517.04 247.42 536.54
  C 249.65 553.99 261.70 565.50 280.07 563.77
  C 293.56 562.50 305.58 553.33 315.81 544.59
  A 0.56 0.56 0.0 0 1 316.74 545.00
  Q 316.95 550.24 319.18 554.98
  C 328.94 575.66 349.39 556.05 358.11 545.02
  A 3.64 3.64 0.0 0 0 358.67 541.53
  L 357.37 538.00
  Z
  M 455.61 507.49
  Q 455.17 509.86 453.66 514.64
  C 448.09 532.29 435.48 547.28 415.98 546.64
  C 400.27 546.12 388.42 534.86 382.29 521.11
  Q 374.19 502.94 375.37 481.44
  C 376.58 459.39 390.07 438.06 414.48 439.01
  Q 421.60 439.28 425.65 442.04
  C 431.17 445.79 431.97 451.63 432.92 458.06
  C 434.11 466.18 439.21 472.04 448.07 470.84
  C 455.44 469.84 458.61 464.28 457.85 457.24
  C 456.30 442.87 440.46 432.66 427.46 430.08
  Q 405.07 425.65 386.50 437.56
  C 358.41 455.57 354.60 494.60 362.76 523.61
  C 369.38 547.18 386.96 564.83 412.36 563.99
  C 442.19 563.01 458.07 537.25 461.63 510.26
  A 0.69 0.69 0.0 0 0 461.29 509.57
  L 456.77 506.96
  A 0.78 0.78 0.0 0 0 455.61 507.49
  Z
  M 704.43 535.99
  A 0.22 0.21 -17.4 0 0 704.06 535.80
  C 699.76 540.40 692.56 549.26 685.53 547.66
  A 1.66 1.66 0.0 0 1 684.65 547.11
  C 682.16 544.13 681.89 537.86 681.88 534.50
  Q 681.78 494.27 681.91 469.56
  Q 681.97 458.12 680.49 453.09
  C 673.29 428.60 645.48 425.06 624.75 431.74
  C 612.87 435.57 602.10 443.83 598.41 455.84
  C 596.34 462.58 597.12 473.15 605.46 474.57
  Q 614.77 476.16 617.87 467.07
  Q 619.53 462.20 619.53 454.06
  C 619.53 443.86 627.87 438.47 637.53 437.93
  C 662.38 436.54 663.19 457.93 663.14 475.98
  A 1.10 1.09 -9.9 0 1 662.41 477.01
  Q 643.85 483.34 626.03 492.26
  C 611.18 499.69 594.24 511.25 593.74 529.74
  C 593.21 549.51 604.76 565.52 626.04 563.93
  Q 634.84 563.27 642.15 559.11
  Q 652.68 553.11 662.41 544.66
  A 0.46 0.45 65.1 0 1 663.16 544.94
  C 664.00 550.64 665.13 555.90 669.02 560.19
  C 679.26 571.47 697.21 554.91 703.64 546.38
  A 1.36 1.34 -31.3 0 0 703.90 545.33
  Q 703.26 541.38 704.43 535.99
  Z
  M 730.32 513.33
  C 722.94 519.39 715.12 527.42 712.38 536.64
  C 709.35 546.86 715.20 550.44 723.02 554.56
  A 0.58 0.58 0.0 0 1 723.14 555.50
  Q 713.60 564.22 706.53 575.27
  C 701.65 582.90 697.64 591.76 703.47 600.29
  C 709.64 609.33 720.81 614.53 731.27 617.23
  Q 760.67 624.83 788.42 613.64
  C 805.92 606.59 825.49 589.16 823.18 568.18
  Q 821.34 551.54 805.09 546.04
  Q 795.33 542.74 785.73 542.51
  Q 767.07 542.07 757.25 541.67
  Q 745.93 541.21 737.78 539.72
  C 730.54 538.39 726.37 535.47 730.47 527.93
  Q 733.53 522.29 738.80 517.60
  A 1.00 1.00 0.0 0 1 739.77 517.41
  Q 748.75 520.48 760.45 519.88
  C 797.69 517.96 815.11 484.63 799.16 451.78
  A 0.50 0.50 0.0 0 1 799.61 451.06
  L 821.36 451.06
  A 0.49 0.49 0.0 0 0 821.85 450.57
  L 821.85 437.61
  A 0.65 0.64 88.3 0 0 821.17 436.96
  L 789.89 439.00
  A 3.94 3.90 -29.0 0 1 787.37 438.29
  Q 767.77 424.48 744.74 430.72
  C 721.67 436.98 708.86 457.31 711.09 480.97
  C 712.35 494.49 718.77 505.68 730.27 512.62
  A 0.44 0.44 0.0 0 1 730.32 513.33
  Z
  M 928.08 481.92
  Q 928.48 469.91 923.89 458.34
  C 914.34 434.24 889.88 424.83 865.39 430.51
  C 827.35 439.31 817.91 483.54 824.15 516.38
  C 828.39 538.69 843.00 557.68 865.73 562.77
  C 899.84 570.42 922.91 542.30 927.39 511.87
  A 0.28 0.27 -71.8 0 0 927.26 511.60
  L 922.23 508.70
  A 0.26 0.26 0.0 0 0 921.85 508.86
  Q 919.43 519.12 914.26 527.74
  Q 903.85 545.07 883.75 545.80
  C 849.52 547.04 839.26 510.02 839.35 483.13
  A 0.51 0.51 0.0 0 1 839.86 482.63
  L 927.35 482.64
  A 0.74 0.73 -89.2 0 0 928.08 481.92
  Z
  M 423.41 707.44
  L 423.41 648.78
  A 0.73 0.72 0.0 0 0 422.68 648.06
  L 417.73 648.06
  A 0.76 0.76 0.0 0 0 416.97 648.81
  C 416.87 658.09 416.10 669.20 405.12 671.86
  Q 399.87 673.14 394.75 673.20
  Q 380.94 673.36 358.09 673.22
  A 0.60 0.60 0.0 0 1 357.50 672.62
  L 357.50 599.11
  A 0.49 0.49 0.0 0 1 357.99 598.62
  Q 381.22 598.56 399.50 598.70
  C 414.10 598.81 428.33 600.22 435.38 614.62
  Q 439.09 622.17 441.36 630.95
  A 0.95 0.94 -7.0 0 0 442.28 631.66
  L 445.98 631.66
  A 0.71 0.71 0.0 0 0 446.69 630.92
  L 444.64 589.26
  A 0.67 0.66 88.6 0 0 443.98 588.62
  L 311.83 588.62
  A 0.59 0.59 0.0 0 0 311.24 589.21
  L 311.24 594.38
  A 0.66 0.66 0.0 0 0 311.93 595.04
  Q 320.40 594.70 327.32 596.68
  C 336.24 599.23 337.36 607.76 337.37 616.00
  Q 337.49 713.11 337.36 755.52
  Q 337.34 761.37 336.23 765.99
  C 334.45 773.44 328.82 775.62 321.82 776.36
  Q 315.88 776.98 312.05 776.82
  A 0.75 0.75 0.0 0 0 311.26 777.57
  L 311.26 782.43
  A 0.83 0.83 0.0 0 0 312.09 783.26
  L 382.93 783.26
  A 0.87 0.86 0.0 0 0 383.80 782.40
  L 383.80 777.86
  A 0.99 0.98 0.0 0 0 382.81 776.88
  Q 378.45 776.86 372.82 776.39
  C 365.74 775.80 359.59 773.74 358.41 766.06
  Q 357.47 759.95 357.48 753.00
  Q 357.52 719.10 357.49 683.06
  A 0.46 0.46 0.0 0 1 357.94 682.60
  Q 365.80 682.56 391.16 682.63
  C 401.52 682.66 413.14 683.21 415.79 695.49
  Q 417.06 701.38 416.93 707.40
  A 0.69 0.69 0.0 0 0 417.62 708.11
  L 422.74 708.11
  A 0.67 0.67 0.0 0 0 423.41 707.44
  Z
  M 477.03 675.80
  A 0.22 0.22 0.0 0 1 476.63 675.68
  L 476.63 652.97
  A 0.66 0.66 0.0 0 0 475.96 652.31
  C 473.24 652.36 471.99 652.38 469.24 653.52
  Q 457.13 658.58 436.06 667.20
  A 1.23 1.21 -21.4 0 0 435.37 668.75
  L 436.66 672.28
  A 1.30 1.30 0.0 0 0 438.45 673.00
  Q 442.26 671.15 447.45 670.29
  Q 453.86 669.24 456.03 674.34
  Q 457.63 678.11 457.67 685.02
  Q 457.83 713.63 457.75 760.00
  C 457.74 767.68 457.17 774.88 448.19 776.20
  Q 442.59 777.02 439.22 776.94
  A 0.72 0.72 0.0 0 0 438.49 777.66
  L 438.49 782.66
  A 0.73 0.72 0.0 0 0 439.22 783.38
  L 499.07 783.38
  A 0.59 0.59 0.0 0 0 499.66 782.79
  L 499.66 777.68
  A 0.67 0.66 -89.6 0 0 499.01 777.01
  Q 493.35 776.90 487.57 776.16
  C 478.51 774.98 476.48 770.62 476.49 762.00
  Q 476.50 745.50 476.50 693.88
  A 1.40 1.26 -41.9 0 1 476.53 693.60
  Q 477.04 691.68 478.96 688.47
  C 482.19 683.05 488.35 673.85 493.92 672.19
  C 499.27 670.59 503.91 674.73 507.41 676.08
  C 513.38 678.39 521.90 676.65 524.96 670.40
  C 527.00 666.23 525.96 660.27 522.93 657.05
  C 516.02 649.70 504.15 651.98 496.34 656.92
  Q 484.94 664.12 477.03 675.80
  Z
  M 744.88 705.42
  Q 745.28 693.41 740.70 681.84
  C 731.14 657.74 706.69 648.32 682.19 653.99
  C 644.15 662.80 634.71 707.02 640.94 739.87
  C 645.18 762.18 659.78 781.17 682.51 786.27
  C 716.62 793.93 739.70 765.80 744.18 735.37
  A 0.28 0.27 -71.8 0 0 744.05 735.10
  L 739.02 732.20
  A 0.26 0.26 0.0 0 0 738.64 732.36
  Q 736.22 742.62 731.05 751.24
  Q 720.64 768.58 700.53 769.30
  C 666.30 770.53 656.05 733.51 656.15 706.62
  A 0.51 0.51 0.0 0 1 656.66 706.12
  L 744.15 706.14
  A 0.74 0.73 -89.2 0 0 744.88 705.42
  Z
  M 628.87 705.41
  Q 629.27 693.40 624.68 681.83
  C 615.12 657.73 590.66 648.32 566.17 654.00
  C 528.13 662.81 518.70 707.04 524.94 739.88
  C 529.18 762.19 543.79 781.18 566.52 786.27
  C 600.63 793.92 623.70 765.79 628.18 735.36
  A 0.28 0.27 -71.8 0 0 628.05 735.09
  L 623.02 732.19
  A 0.26 0.26 0.0 0 0 622.64 732.35
  Q 620.22 742.61 615.05 751.23
  Q 604.64 768.57 584.54 769.30
  C 550.31 770.54 540.05 733.52 540.14 706.63
  A 0.51 0.51 0.0 0 1 540.65 706.13
  L 628.14 706.13
  A 0.74 0.73 -89.2 0 0 628.87 705.41
  Z"
/>
<path fill="#d6dbcc" d="
  M 1001.91 407.01
  C 1000.88 409.29 999.45 410.72 997.27 413.26
  Q 991.23 420.28 982.76 422.22
  C 975.42 423.90 969.63 424.89 962.10 424.00
  Q 951.75 422.77 944.12 419.40
  C 934.35 415.09 928.42 397.93 927.92 388.48
  Q 927.31 377.13 931.79 365.36
  Q 933.68 360.38 935.92 358.05
  C 939.59 354.23 944.22 351.72 948.83 349.46
  C 955.98 345.95 964.02 345.63 972.78 346.51
  Q 982.03 347.44 988.76 351.27
  C 996.56 355.71 1001.77 362.26 1006.21 370.04
  Q 1007.68 372.62 1007.82 375.45
  Q 1007.99 379.12 1007.82 389.02
  C 1007.76 392.92 1007.08 397.26 1004.73 401.27
  Q 1003.74 402.97 1001.91 407.01
  Z
  M 964.36 354.93
  A 0.94 0.93 -49.2 0 0 964.29 353.87
  Q 963.91 353.37 963.65 352.58
  A 1.53 1.50 -41.8 0 1 963.72 351.48
  Q 964.33 350.19 964.33 348.54
  A 0.41 0.41 0.0 0 0 963.75 348.16
  Q 963.64 348.21 962.86 348.86
  C 961.31 350.13 960.74 348.88 959.22 349.25
  Q 957.56 349.66 956.91 351.63
  A 1.52 1.52 0.0 0 0 958.11 353.61
  Q 959.76 353.87 961.26 354.28
  Q 962.44 354.61 963.04 357.49
  A 0.21 0.20 44.7 0 0 963.44 357.49
  Q 963.73 356.00 964.36 354.93
  Z
  M 977.46 420.35
  A 0.30 0.29 20.7 0 0 977.69 420.85
  Q 986.05 420.35 992.28 415.02
  Q 997.67 410.41 999.95 406.18
  Q 1001.03 404.18 1003.97 398.21
  Q 1004.30 397.55 1004.80 394.98
  A 0.61 0.60 14.1 0 0 1004.37 394.28
  Q 1002.87 393.85 1002.00 393.02
  A 4.00 3.95 -78.7 0 1 1001.02 391.53
  L 998.45 384.52
  A 1.84 1.77 -50.2 0 1 998.38 383.55
  Q 999.39 378.25 1003.11 375.21
  A 2.63 2.62 56.7 0 0 1003.78 371.96
  C 997.31 359.50 987.63 350.67 973.00 348.77
  A 1.18 1.18 0.0 0 0 971.94 349.20
  Q 971.30 349.98 970.05 350.11
  A 0.42 0.42 0.0 0 0 969.68 350.49
  Q 969.63 350.98 969.99 351.23
  A 0.52 0.52 0.0 0 0 970.53 351.26
  Q 971.60 350.67 972.68 350.56
  A 0.89 0.88 -10.2 0 1 973.63 351.22
  C 974.38 354.15 977.61 354.42 978.13 357.06
  C 978.66 359.79 978.12 362.52 974.47 361.10
  A 0.56 0.56 0.0 0 0 973.71 361.67
  Q 973.92 363.97 972.51 364.72
  C 970.27 365.91 969.94 366.91 967.99 368.89
  A 1.43 1.40 69.0 0 0 967.58 369.84
  C 967.48 372.92 965.79 374.20 963.85 376.15
  A 0.78 0.77 53.1 0 0 963.72 377.07
  Q 964.72 378.93 963.44 380.47
  A 1.17 1.16 -48.5 0 1 961.73 380.58
  Q 960.17 379.10 960.09 377.47
  A 0.80 0.80 0.0 0 0 959.35 376.71
  Q 956.01 376.46 954.46 380.10
  A 1.22 1.22 0.0 0 0 956.00 381.72
  L 958.55 380.79
  A 0.94 0.93 -24.9 0 1 959.69 381.20
  L 961.96 385.13
  A 0.43 0.38 32.3 0 1 962.02 385.34
  L 962.20 388.10
  A 1.25 1.25 0.0 0 0 963.94 389.17
  Q 965.31 388.58 966.42 387.51
  A 1.55 1.51 20.0 0 1 967.33 387.10
  C 970.72 386.79 973.39 389.01 975.85 389.19
  A 2.76 2.73 -21.1 0 1 977.54 389.93
  Q 979.15 391.43 980.97 391.98
  A 1.85 1.82 -13.1 0 1 981.79 392.48
  L 984.20 395.04
  A 1.51 1.41 80.8 0 0 984.56 395.32
  C 987.04 396.66 993.16 399.46 990.29 402.45
  Q 988.31 404.51 988.09 407.10
  C 987.91 409.25 987.32 411.28 985.17 411.92
  Q 983.67 412.37 982.90 413.58
  Q 980.58 417.24 977.46 420.35
  Z
  M 960.14 385.89
  Q 958.91 384.94 958.37 383.99
  A 0.88 0.87 75.3 0 0 957.61 383.54
  L 954.47 383.54
  A 1.31 1.30 -11.0 0 1 953.26 382.73
  C 951.22 377.75 956.19 373.22 961.12 374.75
  A 1.36 1.34 39.9 0 0 962.12 374.67
  Q 966.19 372.61 965.72 368.85
  A 1.17 1.15 68.0 0 1 966.16 367.79
  Q 968.39 366.11 970.04 364.02
  Q 970.31 363.68 970.88 363.42
  Q 971.61 363.09 971.78 363.01
  A 0.65 0.65 0.0 0 0 972.14 362.25
  L 971.81 361.04
  A 0.87 0.87 0.0 0 1 972.03 360.22
  Q 973.75 358.44 976.40 359.28
  A 0.49 0.48 -76.6 0 0 977.02 358.89
  C 977.49 355.99 973.20 355.21 972.87 353.53
  A 0.40 0.39 -26.1 0 0 972.22 353.31
  Q 971.40 354.00 969.78 353.36
  A 1.07 1.06 1.4 0 1 969.16 352.72
  Q 968.77 351.55 967.44 350.27
  A 0.72 0.72 0.0 0 0 966.31 350.44
  C 965.71 351.53 966.50 353.12 966.99 354.09
  A 1.30 1.28 51.1 0 1 966.85 355.47
  Q 965.56 357.08 965.53 358.94
  A 1.00 0.99 -12.7 0 1 964.95 359.84
  Q 963.65 360.43 962.45 359.85
  A 1.19 1.11 0.1 0 1 961.96 359.39
  L 960.82 357.43
  A 2.96 2.96 0.0 0 0 958.76 355.98
  Q 953.31 355.00 954.94 350.54
  A 0.55 0.54 -88.9 0 0 954.26 349.83
  Q 946.33 352.47 937.93 359.17
  A 1.34 1.34 0.0 0 0 937.87 361.22
  Q 939.22 362.43 938.97 365.00
  Q 938.72 367.47 938.32 370.33
  A 0.85 0.85 0.0 0 0 938.93 371.27
  L 943.25 372.44
  A 3.82 3.70 -16.4 0 1 944.66 373.18
  Q 949.08 376.94 950.17 381.45
  A 2.90 2.89 87.3 0 0 952.57 383.64
  Q 956.68 384.25 959.85 386.27
  A 0.24 0.24 0.0 0 0 960.18 386.21
  L 960.19 386.20
  A 0.24 0.22 37.5 0 0 960.14 385.89
  Z
  M 963.07 392.30
  L 962.30 392.15
  A 0.74 0.65 -14.9 0 1 962.02 392.01
  L 957.85 388.22
  A 3.31 3.29 72.9 0 0 956.39 387.44
  C 954.07 386.86 948.90 385.76 948.03 383.25
  Q 946.36 378.38 943.56 375.80
  A 2.52 2.43 -13.1 0 0 942.71 375.29
  C 939.78 374.22 935.29 374.13 936.07 369.77
  Q 936.61 366.77 936.82 363.68
  A 0.73 0.73 0.0 0 0 935.43 363.34
  C 930.51 374.52 928.54 387.88 932.77 399.55
  Q 933.77 402.33 936.46 407.55
  C 939.40 413.27 942.78 416.80 948.76 418.83
  C 954.20 420.67 959.73 421.49 966.16 422.33
  A 0.52 0.51 9.0 0 0 966.73 421.92
  L 969.02 410.50
  A 1.68 1.67 21.3 0 0 968.24 408.74
  Q 964.04 406.21 962.64 400.75
  Q 961.87 397.75 964.05 394.83
  A 1.61 1.60 23.9 0 0 963.07 392.30
  Z
  M 1005.06 377.56
  Q 1003.10 378.81 1001.94 381.54
  Q 1001.16 383.39 1002.33 386.42
  Q 1003.97 390.63 1004.49 391.44
  A 0.55 0.55 0.0 0 0 1005.51 391.14
  L 1005.51 377.81
  A 0.29 0.29 0.0 0 0 1005.06 377.56
  Z
  M 969.14 422.22
  Q 972.68 422.43 974.35 421.42
  A 1.87 1.80 -1.9 0 0 975.03 420.72
  Q 975.83 419.20 981.16 412.27
  C 982.45 410.59 983.57 410.02 984.73 409.35
  A 2.49 2.48 -15.1 0 0 985.97 407.20
  Q 985.97 403.61 988.52 400.85
  A 0.84 0.84 0.0 0 0 988.27 399.53
  Q 983.46 397.13 980.65 394.17
  A 3.64 3.55 78.1 0 0 979.34 393.29
  Q 977.56 392.60 976.45 391.52
  A 1.83 1.81 65.7 0 0 975.15 391.02
  Q 974.42 391.05 969.64 389.08
  Q 967.87 388.34 966.25 390.33
  A 1.34 1.34 0.0 0 0 966.00 391.54
  Q 966.71 394.11 965.26 396.17
  C 963.59 398.54 965.21 402.31 966.71 404.28
  Q 967.30 405.04 970.16 407.16
  A 1.93 1.89 -83.3 0 1 970.77 407.95
  Q 971.41 409.50 970.96 411.49
  Q 969.57 417.49 968.77 421.75
  A 0.39 0.39 0.0 0 0 969.14 422.22
  Z"
/>
<path fill="#25412a" d="
  M 964.36 354.93
  Q 963.73 356.00 963.44 357.49
  A 0.21 0.20 44.7 0 1 963.04 357.49
  Q 962.44 354.61 961.26 354.28
  Q 959.76 353.87 958.11 353.61
  A 1.52 1.52 0.0 0 1 956.91 351.63
  Q 957.56 349.66 959.22 349.25
  C 960.74 348.88 961.31 350.13 962.86 348.86
  Q 963.64 348.21 963.75 348.16
  A 0.41 0.41 0.0 0 1 964.33 348.54
  Q 964.33 350.19 963.72 351.48
  A 1.53 1.50 -41.8 0 0 963.65 352.58
  Q 963.91 353.37 964.29 353.87
  A 0.94 0.93 -49.2 0 1 964.36 354.93
  Z"
/>
<path fill="#25412a" d="
  M 977.46 420.35
  Q 980.58 417.24 982.90 413.58
  Q 983.67 412.37 985.17 411.92
  C 987.32 411.28 987.91 409.25 988.09 407.10
  Q 988.31 404.51 990.29 402.45
  C 993.16 399.46 987.04 396.66 984.56 395.32
  A 1.51 1.41 80.8 0 1 984.20 395.04
  L 981.79 392.48
  A 1.85 1.82 -13.1 0 0 980.97 391.98
  Q 979.15 391.43 977.54 389.93
  A 2.76 2.73 -21.1 0 0 975.85 389.19
  C 973.39 389.01 970.72 386.79 967.33 387.10
  A 1.55 1.51 20.0 0 0 966.42 387.51
  Q 965.31 388.58 963.94 389.17
  A 1.25 1.25 0.0 0 1 962.20 388.10
  L 962.02 385.34
  A 0.43 0.38 32.3 0 0 961.96 385.13
  L 959.69 381.20
  A 0.94 0.93 -24.9 0 0 958.55 380.79
  L 956.00 381.72
  A 1.22 1.22 0.0 0 1 954.46 380.10
  Q 956.01 376.46 959.35 376.71
  A 0.80 0.80 0.0 0 1 960.09 377.47
  Q 960.17 379.10 961.73 380.58
  A 1.17 1.16 -48.5 0 0 963.44 380.47
  Q 964.72 378.93 963.72 377.07
  A 0.78 0.77 53.1 0 1 963.85 376.15
  C 965.79 374.20 967.48 372.92 967.58 369.84
  A 1.43 1.40 69.0 0 1 967.99 368.89
  C 969.94 366.91 970.27 365.91 972.51 364.72
  Q 973.92 363.97 973.71 361.67
  A 0.56 0.56 0.0 0 1 974.47 361.10
  C 978.12 362.52 978.66 359.79 978.13 357.06
  C 977.61 354.42 974.38 354.15 973.63 351.22
  A 0.89 0.88 -10.2 0 0 972.68 350.56
  Q 971.60 350.67 970.53 351.26
  A 0.52 0.52 0.0 0 1 969.99 351.23
  Q 969.63 350.98 969.68 350.49
  A 0.42 0.42 0.0 0 1 970.05 350.11
  Q 971.30 349.98 971.94 349.20
  A 1.18 1.18 0.0 0 1 973.00 348.77
  C 987.63 350.67 997.31 359.50 1003.78 371.96
  A 2.63 2.62 56.7 0 1 1003.11 375.21
  Q 999.39 378.25 998.38 383.55
  A 1.84 1.77 -50.2 0 0 998.45 384.52
  L 1001.02 391.53
  A 4.00 3.95 -78.7 0 0 1002.00 393.02
  Q 1002.87 393.85 1004.37 394.28
  A 0.61 0.60 14.1 0 1 1004.80 394.98
  Q 1004.30 397.55 1003.97 398.21
  Q 1001.03 404.18 999.95 406.18
  Q 997.67 410.41 992.28 415.02
  Q 986.05 420.35 977.69 420.85
  A 0.30 0.29 20.7 0 1 977.46 420.35
  Z"
/>
<path fill="#25412a" d="
  M 960.14 385.89
  A 0.24 0.22 37.5 0 1 960.19 386.20
  L 960.18 386.21
  A 0.24 0.24 0.0 0 1 959.85 386.27
  Q 956.68 384.25 952.57 383.64
  A 2.90 2.89 87.3 0 1 950.17 381.45
  Q 949.08 376.94 944.66 373.18
  A 3.82 3.70 -16.4 0 0 943.25 372.44
  L 938.93 371.27
  A 0.85 0.85 0.0 0 1 938.32 370.33
  Q 938.72 367.47 938.97 365.00
  Q 939.22 362.43 937.87 361.22
  A 1.34 1.34 0.0 0 1 937.93 359.17
  Q 946.33 352.47 954.26 349.83
  A 0.55 0.54 -88.9 0 1 954.94 350.54
  Q 953.31 355.00 958.76 355.98
  A 2.96 2.96 0.0 0 1 960.82 357.43
  L 961.96 359.39
  A 1.19 1.11 0.1 0 0 962.45 359.85
  Q 963.65 360.43 964.95 359.84
  A 1.00 0.99 -12.7 0 0 965.53 358.94
  Q 965.56 357.08 966.85 355.47
  A 1.30 1.28 51.1 0 0 966.99 354.09
  C 966.50 353.12 965.71 351.53 966.31 350.44
  A 0.72 0.72 0.0 0 1 967.44 350.27
  Q 968.77 351.55 969.16 352.72
  A 1.07 1.06 1.4 0 0 969.78 353.36
  Q 971.40 354.00 972.22 353.31
  A 0.40 0.39 -26.1 0 1 972.87 353.53
  C 973.20 355.21 977.49 355.99 977.02 358.89
  A 0.49 0.48 -76.6 0 1 976.40 359.28
  Q 973.75 358.44 972.03 360.22
  A 0.87 0.87 0.0 0 0 971.81 361.04
  L 972.14 362.25
  A 0.65 0.65 0.0 0 1 971.78 363.01
  Q 971.61 363.09 970.88 363.42
  Q 970.31 363.68 970.04 364.02
  Q 968.39 366.11 966.16 367.79
  A 1.17 1.15 68.0 0 0 965.72 368.85
  Q 966.19 372.61 962.12 374.67
  A 1.36 1.34 39.9 0 1 961.12 374.75
  C 956.19 373.22 951.22 377.75 953.26 382.73
  A 1.31 1.30 -11.0 0 0 954.47 383.54
  L 957.61 383.54
  A 0.88 0.87 75.3 0 1 958.37 383.99
  Q 958.91 384.94 960.14 385.89
  Z"
/>
<path fill="#25412a" d="
  M 963.07 392.30
  A 1.61 1.60 23.9 0 1 964.05 394.83
  Q 961.87 397.75 962.64 400.75
  Q 964.04 406.21 968.24 408.74
  A 1.68 1.67 21.3 0 1 969.02 410.50
  L 966.73 421.92
  A 0.52 0.51 9.0 0 1 966.16 422.33
  C 959.73 421.49 954.20 420.67 948.76 418.83
  C 942.78 416.80 939.40 413.27 936.46 407.55
  Q 933.77 402.33 932.77 399.55
  C 928.54 387.88 930.51 374.52 935.43 363.34
  A 0.73 0.73 0.0 0 1 936.82 363.68
  Q 936.61 366.77 936.07 369.77
  C 935.29 374.13 939.78 374.22 942.71 375.29
  A 2.52 2.43 -13.1 0 1 943.56 375.80
  Q 946.36 378.38 948.03 383.25
  C 948.90 385.76 954.07 386.86 956.39 387.44
  A 3.31 3.29 72.9 0 1 957.85 388.22
  L 962.02 392.01
  A 0.74 0.65 -14.9 0 0 962.30 392.15
  L 963.07 392.30
  Z"
/>
<path fill="#d6dbcc" d="
  M 112.62 553.69
  Q 118.76 553.81 124.76 552.77
  C 138.31 550.43 138.24 537.87 138.25 526.75
  Q 138.27 490.83 138.24 394.00
  C 138.24 384.86 138.23 373.03 126.64 370.87
  Q 119.24 369.49 112.67 369.72
  A 0.66 0.66 0.0 0 1 111.99 369.06
  L 111.99 363.87
  A 0.62 0.61 0.0 0 1 112.61 363.26
  Q 169.33 363.26 186.74 363.29
  C 214.66 363.35 241.26 376.69 247.10 406.07
  C 252.76 434.57 237.86 460.42 209.32 467.60
  C 192.96 471.72 175.26 468.24 158.77 464.68
  A 0.42 0.42 0.0 0 0 158.26 465.09
  Q 158.20 514.20 158.34 533.99
  C 158.38 540.35 159.23 549.35 166.27 551.81
  C 171.66 553.70 178.27 553.76 183.78 553.74
  A 0.74 0.73 90.0 0 1 184.51 554.48
  L 184.51 559.40
  A 0.73 0.73 0.0 0 1 183.78 560.13
  L 112.55 560.13
  A 0.58 0.58 0.0 0 1 111.97 559.55
  L 111.97 554.33
  A 0.64 0.64 0.0 0 1 112.62 553.69
  Z
  M 158.25 376.70
  L 158.25 454.71
  A 0.92 0.91 -84.2 0 0 158.98 455.61
  Q 172.11 458.28 186.47 459.21
  Q 207.12 460.55 217.33 443.24
  Q 222.59 434.33 223.14 423.97
  C 224.28 401.97 216.18 380.66 192.73 375.25
  C 183.00 373.00 168.98 374.44 158.68 376.19
  A 0.52 0.51 85.4 0 0 158.25 376.70
  Z"
/>
<path fill="#d6dbcc" d="
  M 499.37 493.56
  Q 499.43 536.79 499.43 537.28
  C 499.42 549.75 505.94 554.32 517.90 553.52
  A 0.70 0.70 0.0 0 1 518.65 554.22
  L 518.65 559.42
  A 0.70 0.70 0.0 0 1 517.95 560.12
  L 462.13 560.12
  A 0.77 0.76 0.0 0 1 461.36 559.36
  L 461.36 554.34
  A 0.82 0.81 0.7 0 1 462.20 553.53
  Q 467.99 553.68 472.27 552.51
  C 479.60 550.50 480.61 543.55 480.61 536.94
  Q 480.66 413.65 480.55 392.01
  C 480.52 387.59 478.73 382.75 473.95 382.09
  C 469.36 381.46 465.27 382.97 461.16 384.52
  A 0.79 0.79 0.0 0 1 460.15 384.05
  L 458.53 379.63
  A 0.62 0.62 0.0 0 1 458.88 378.84
  Q 492.18 365.03 492.96 364.72
  Q 495.67 363.61 498.80 364.00
  A 0.56 0.56 0.0 0 1 499.29 364.56
  L 499.29 485.23
  A 0.46 0.46 0.0 0 0 500.07 485.57
  Q 502.98 482.81 537.61 450.36
  Q 540.28 447.85 541.29 445.58
  C 544.04 439.36 537.12 439.44 533.05 439.21
  A 0.72 0.72 0.0 0 1 532.37 438.49
  L 532.37 433.33
  A 0.59 0.59 0.0 0 1 532.96 432.74
  L 584.37 432.74
  A 0.81 0.81 0.0 0 1 585.18 433.55
  L 585.18 438.31
  A 1.03 1.03 0.0 0 1 584.10 439.34
  Q 563.75 438.33 548.85 452.78
  Q 542.95 458.49 517.22 483.06
  A 0.48 0.48 0.0 0 0 517.18 483.72
  Q 518.53 485.39 556.28 532.46
  C 563.52 541.49 572.50 550.08 583.73 553.01
  Q 585.90 553.58 590.99 553.66
  A 0.31 0.30 1.0 0 1 591.29 553.96
  L 591.29 559.91
  A 0.22 0.21 -0.0 0 1 591.07 560.12
  L 535.02 560.12
  A 0.64 0.63 0.0 0 1 534.38 559.49
  L 534.38 554.16
  A 0.64 0.64 0.0 0 1 535.08 553.52
  Q 544.45 554.37 542.79 548.24
  Q 542.05 545.53 540.45 543.55
  Q 524.52 523.87 499.77 493.42
  A 0.23 0.22 25.5 0 0 499.37 493.56
  Z"
/>
<path fill="#25412a" d="
  M 158.25 376.70
  A 0.52 0.51 85.4 0 1 158.68 376.19
  C 168.98 374.44 183.00 373.00 192.73 375.25
  C 216.18 380.66 224.28 401.97 223.14 423.97
  Q 222.59 434.33 217.33 443.24
  Q 207.12 460.55 186.47 459.21
  Q 172.11 458.28 158.98 455.61
  A 0.92 0.91 -84.2 0 1 158.25 454.71
  L 158.25 376.70
  Z"
/>
<path fill="#25412a" d="
  M 1005.06 377.56
  A 0.29 0.29 0.0 0 1 1005.51 377.81
  L 1005.51 391.14
  A 0.55 0.55 0.0 0 1 1004.49 391.44
  Q 1003.97 390.63 1002.33 386.42
  Q 1001.16 383.39 1001.94 381.54
  Q 1003.10 378.81 1005.06 377.56
  Z"
/>
<path fill="#25412a" d="
  M 969.14 422.22
  A 0.39 0.39 0.0 0 1 968.77 421.75
  Q 969.57 417.49 970.96 411.49
  Q 971.41 409.50 970.77 407.95
  A 1.93 1.89 -83.3 0 0 970.16 407.16
  Q 967.30 405.04 966.71 404.28
  C 965.21 402.31 963.59 398.54 965.26 396.17
  Q 966.71 394.11 966.00 391.54
  A 1.34 1.34 0.0 0 1 966.25 390.33
  Q 967.87 388.34 969.64 389.08
  Q 974.42 391.05 975.15 391.02
  A 1.83 1.81 65.7 0 1 976.45 391.52
  Q 977.56 392.60 979.34 393.29
  A 3.64 3.55 78.1 0 1 980.65 394.17
  Q 983.46 397.13 988.27 399.53
  A 0.84 0.84 0.0 0 1 988.52 400.85
  Q 985.97 403.61 985.97 407.20
  A 2.49 2.48 -15.1 0 1 984.73 409.35
  C 983.57 410.02 982.45 410.59 981.16 412.27
  Q 975.83 419.20 975.03 420.72
  A 1.87 1.80 -1.9 0 1 974.35 421.42
  Q 972.68 422.43 969.14 422.22
  Z"
/>
<path fill="#d6dbcc" d="
  M 357.37 538.00
  L 358.67 541.53
  A 3.64 3.64 0.0 0 1 358.11 545.02
  C 349.39 556.05 328.94 575.66 319.18 554.98
  Q 316.95 550.24 316.74 545.00
  A 0.56 0.56 0.0 0 0 315.81 544.59
  C 305.58 553.33 293.56 562.50 280.07 563.77
  C 261.70 565.50 249.65 553.99 247.42 536.54
  Q 244.93 517.04 260.77 504.22
  Q 267.87 498.47 272.64 495.87
  Q 293.57 484.41 315.79 476.97
  A 0.92 0.92 0.0 0 0 316.42 476.14
  C 316.96 460.51 316.00 440.23 297.16 438.00
  C 290.80 437.24 283.56 438.10 278.55 442.05
  C 272.83 446.55 272.83 452.24 272.62 459.45
  C 272.41 466.51 269.74 474.65 261.25 474.75
  C 252.17 474.85 249.77 465.59 251.17 458.42
  C 253.62 445.86 264.29 436.68 275.95 432.40
  C 296.60 424.83 325.81 427.56 333.71 452.23
  Q 335.30 457.18 335.29 470.51
  Q 335.22 530.03 335.22 531.26
  Q 335.23 539.82 336.72 544.79
  Q 337.93 548.83 343.07 547.45
  Q 347.95 546.13 355.64 537.66
  A 1.03 1.03 0.0 0 1 357.37 538.00
  Z
  M 316.18 486.39
  Q 300.58 491.79 286.47 499.94
  C 275.96 506.01 265.81 515.17 266.53 528.24
  C 267.33 542.90 278.43 552.59 293.29 547.27
  C 301.56 544.31 308.87 538.89 316.17 533.45
  A 1.10 1.10 0.0 0 0 316.61 532.57
  L 316.61 486.70
  A 0.33 0.32 80.5 0 0 316.18 486.39
  Z"
/>
<path fill="#d6dbcc" d="
  M 455.61 507.49
  A 0.78 0.78 0.0 0 1 456.77 506.96
  L 461.29 509.57
  A 0.69 0.69 0.0 0 1 461.63 510.26
  C 458.07 537.25 442.19 563.01 412.36 563.99
  C 386.96 564.83 369.38 547.18 362.76 523.61
  C 354.60 494.60 358.41 455.57 386.50 437.56
  Q 405.07 425.65 427.46 430.08
  C 440.46 432.66 456.30 442.87 457.85 457.24
  C 458.61 464.28 455.44 469.84 448.07 470.84
  C 439.21 472.04 434.11 466.18 432.92 458.06
  C 431.97 451.63 431.17 445.79 425.65 442.04
  Q 421.60 439.28 414.48 439.01
  C 390.07 438.06 376.58 459.39 375.37 481.44
  Q 374.19 502.94 382.29 521.11
  C 388.42 534.86 400.27 546.12 415.98 546.64
  C 435.48 547.28 448.09 532.29 453.66 514.64
  Q 455.17 509.86 455.61 507.49
  Z"
/>
<path fill="#d6dbcc" d="
  M 704.43 535.99
  Q 703.26 541.38 703.90 545.33
  A 1.36 1.34 -31.3 0 1 703.64 546.38
  C 697.21 554.91 679.26 571.47 669.02 560.19
  C 665.13 555.90 664.00 550.64 663.16 544.94
  A 0.46 0.45 65.1 0 0 662.41 544.66
  Q 652.68 553.11 642.15 559.11
  Q 634.84 563.27 626.04 563.93
  C 604.76 565.52 593.21 549.51 593.74 529.74
  C 594.24 511.25 611.18 499.69 626.03 492.26
  Q 643.85 483.34 662.41 477.01
  A 1.10 1.09 -9.9 0 0 663.14 475.98
  C 663.19 457.93 662.38 436.54 637.53 437.93
  C 627.87 438.47 619.53 443.86 619.53 454.06
  Q 619.53 462.20 617.87 467.07
  Q 614.77 476.16 605.46 474.57
  C 597.12 473.15 596.34 462.58 598.41 455.84
  C 602.10 443.83 612.87 435.57 624.75 431.74
  C 645.48 425.06 673.29 428.60 680.49 453.09
  Q 681.97 458.12 681.91 469.56
  Q 681.78 494.27 681.88 534.50
  C 681.89 537.86 682.16 544.13 684.65 547.11
  A 1.66 1.66 0.0 0 0 685.53 547.66
  C 692.56 549.26 699.76 540.40 704.06 535.80
  A 0.22 0.21 -17.4 0 1 704.43 535.99
  Z
  M 662.54 486.33
  Q 646.94 491.76 632.84 499.94
  C 622.33 506.03 612.19 515.22 612.94 528.29
  C 613.76 542.96 624.89 552.64 639.75 547.29
  C 648.02 544.31 655.32 538.87 662.62 533.42
  A 1.10 1.10 0.0 0 0 663.05 532.53
  L 662.97 486.64
  A 0.33 0.32 80.4 0 0 662.54 486.33
  Z"
/>
<path fill="#d6dbcc" d="
  M 730.32 513.33
  A 0.44 0.44 0.0 0 0 730.27 512.62
  C 718.77 505.68 712.35 494.49 711.09 480.97
  C 708.86 457.31 721.67 436.98 744.74 430.72
  Q 767.77 424.48 787.37 438.29
  A 3.94 3.90 -29.0 0 0 789.89 439.00
  L 821.17 436.96
  A 0.65 0.64 88.3 0 1 821.85 437.61
  L 821.85 450.57
  A 0.49 0.49 0.0 0 1 821.36 451.06
  L 799.61 451.06
  A 0.50 0.50 0.0 0 0 799.16 451.78
  C 815.11 484.63 797.69 517.96 760.45 519.88
  Q 748.75 520.48 739.77 517.41
  A 1.00 1.00 0.0 0 0 738.80 517.60
  Q 733.53 522.29 730.47 527.93
  C 726.37 535.47 730.54 538.39 737.78 539.72
  Q 745.93 541.21 757.25 541.67
  Q 767.07 542.07 785.73 542.51
  Q 795.33 542.74 805.09 546.04
  Q 821.34 551.54 823.18 568.18
  C 825.49 589.16 805.92 606.59 788.42 613.64
  Q 760.67 624.83 731.27 617.23
  C 720.81 614.53 709.64 609.33 703.47 600.29
  C 697.64 591.76 701.65 582.90 706.53 575.27
  Q 713.60 564.22 723.14 555.50
  A 0.58 0.58 0.0 0 0 723.02 554.56
  C 715.20 550.44 709.35 546.86 712.38 536.64
  C 715.12 527.42 722.94 519.39 730.32 513.33
  Z
  M 730.96 463.50
  C 729.15 481.63 734.32 510.92 758.15 512.10
  C 777.35 513.05 784.51 498.35 785.06 481.75
  C 785.67 463.00 780.58 438.05 757.28 436.79
  C 741.82 435.96 732.34 449.72 730.96 463.50
  Z
  M 732.30 558.73
  Q 724.08 566.51 718.79 575.54
  Q 714.78 582.37 717.06 588.17
  C 719.95 595.50 729.88 600.82 737.67 603.11
  C 755.84 608.44 776.26 607.95 793.65 599.90
  C 802.76 595.68 811.97 587.70 813.42 577.28
  C 814.76 567.70 808.08 563.43 799.66 561.86
  C 787.46 559.59 775.66 560.09 760.50 560.07
  Q 746.28 560.05 733.72 558.28
  A 1.75 1.73 27.1 0 0 732.30 558.73
  Z"
/>
<path fill="#d6dbcc" d="
  M 928.08 481.92
  A 0.74 0.73 -89.2 0 1 927.35 482.64
  L 839.86 482.63
  A 0.51 0.51 0.0 0 0 839.35 483.13
  C 839.26 510.02 849.52 547.04 883.75 545.80
  Q 903.85 545.07 914.26 527.74
  Q 919.43 519.12 921.85 508.86
  A 0.26 0.26 0.0 0 1 922.23 508.70
  L 927.26 511.60
  A 0.28 0.27 -71.8 0 1 927.39 511.87
  C 922.91 542.30 899.84 570.42 865.73 562.77
  C 843.00 557.68 828.39 538.69 824.15 516.38
  C 817.91 483.54 827.35 439.31 865.39 430.51
  C 889.88 424.83 914.34 434.24 923.89 458.34
  Q 928.48 469.91 928.08 481.92
  Z
  M 840.39 472.87
  Q 855.38 472.85 894.97 472.88
  C 901.60 472.89 905.92 472.63 905.07 464.94
  C 903.47 450.35 893.49 440.97 878.92 439.22
  C 859.04 436.83 842.26 452.97 839.90 472.31
  A 0.50 0.49 -86.4 0 0 840.39 472.87
  Z"
/>
<path fill="#25412a" d="
  M 758.15 512.10
  C 734.32 510.92 729.15 481.63 730.96 463.50
  C 732.34 449.72 741.82 435.96 757.28 436.79
  C 780.58 438.05 785.67 463.00 785.06 481.75
  C 784.51 498.35 777.35 513.05 758.15 512.10
  Z"
/>
<path fill="#25412a" d="
  M 840.39 472.87
  A 0.50 0.49 -86.4 0 1 839.90 472.31
  C 842.26 452.97 859.04 436.83 878.92 439.22
  C 893.49 440.97 903.47 450.35 905.07 464.94
  C 905.92 472.63 901.60 472.89 894.97 472.88
  Q 855.38 472.85 840.39 472.87
  Z"
/>
<path fill="#25412a" d="
  M 662.54 486.33
  A 0.33 0.32 80.4 0 1 662.97 486.64
  L 663.05 532.53
  A 1.10 1.10 0.0 0 1 662.62 533.42
  C 655.32 538.87 648.02 544.31 639.75 547.29
  C 624.89 552.64 613.76 542.96 612.94 528.29
  C 612.19 515.22 622.33 506.03 632.84 499.94
  Q 646.94 491.76 662.54 486.33
  Z"
/>
<path fill="#25412a" d="
  M 316.18 486.39
  A 0.33 0.32 80.5 0 1 316.61 486.70
  L 316.61 532.57
  A 1.10 1.10 0.0 0 1 316.17 533.45
  C 308.87 538.89 301.56 544.31 293.29 547.27
  C 278.43 552.59 267.33 542.90 266.53 528.24
  C 265.81 515.17 275.96 506.01 286.47 499.94
  Q 300.58 491.79 316.18 486.39
  Z"
/>
<path fill="#25412a" d="
  M 732.30 558.73
  A 1.75 1.73 27.1 0 1 733.72 558.28
  Q 746.28 560.05 760.50 560.07
  C 775.66 560.09 787.46 559.59 799.66 561.86
  C 808.08 563.43 814.76 567.70 813.42 577.28
  C 811.97 587.70 802.76 595.68 793.65 599.90
  C 776.26 607.95 755.84 608.44 737.67 603.11
  C 729.88 600.82 719.95 595.50 717.06 588.17
  Q 714.78 582.37 718.79 575.54
  Q 724.08 566.51 732.30 558.73
  Z"
/>
<path fill="#d6dbcc" d="
  M 423.41 707.44
  A 0.67 0.67 0.0 0 1 422.74 708.11
  L 417.62 708.11
  A 0.69 0.69 0.0 0 1 416.93 707.40
  Q 417.06 701.38 415.79 695.49
  C 413.14 683.21 401.52 682.66 391.16 682.63
  Q 365.80 682.56 357.94 682.60
  A 0.46 0.46 0.0 0 0 357.49 683.06
  Q 357.52 719.10 357.48 753.00
  Q 357.47 759.95 358.41 766.06
  C 359.59 773.74 365.74 775.80 372.82 776.39
  Q 378.45 776.86 382.81 776.88
  A 0.99 0.98 0.0 0 1 383.80 777.86
  L 383.80 782.40
  A 0.87 0.86 -0.0 0 1 382.93 783.26
  L 312.09 783.26
  A 0.83 0.83 0.0 0 1 311.26 782.43
  L 311.26 777.57
  A 0.75 0.75 0.0 0 1 312.05 776.82
  Q 315.88 776.98 321.82 776.36
  C 328.82 775.62 334.45 773.44 336.23 765.99
  Q 337.34 761.37 337.36 755.52
  Q 337.49 713.11 337.37 616.00
  C 337.36 607.76 336.24 599.23 327.32 596.68
  Q 320.40 594.70 311.93 595.04
  A 0.66 0.66 0.0 0 1 311.24 594.38
  L 311.24 589.21
  A 0.59 0.59 0.0 0 1 311.83 588.62
  L 443.98 588.62
  A 0.67 0.66 88.6 0 1 444.64 589.26
  L 446.69 630.92
  A 0.71 0.71 0.0 0 1 445.98 631.66
  L 442.28 631.66
  A 0.95 0.94 -7.0 0 1 441.36 630.95
  Q 439.09 622.17 435.38 614.62
  C 428.33 600.22 414.10 598.81 399.50 598.70
  Q 381.22 598.56 357.99 598.62
  A 0.49 0.49 0.0 0 0 357.50 599.11
  L 357.50 672.62
  A 0.60 0.60 0.0 0 0 358.09 673.22
  Q 380.94 673.36 394.75 673.20
  Q 399.87 673.14 405.12 671.86
  C 416.10 669.20 416.87 658.09 416.97 648.81
  A 0.76 0.76 0.0 0 1 417.73 648.06
  L 422.68 648.06
  A 0.73 0.72 -0.0 0 1 423.41 648.78
  L 423.41 707.44
  Z"
/>
<path fill="#d6dbcc" d="
  M 477.03 675.80
  Q 484.94 664.12 496.34 656.92
  C 504.15 651.98 516.02 649.70 522.93 657.05
  C 525.96 660.27 527.00 666.23 524.96 670.40
  C 521.90 676.65 513.38 678.39 507.41 676.08
  C 503.91 674.73 499.27 670.59 493.92 672.19
  C 488.35 673.85 482.19 683.05 478.96 688.47
  Q 477.04 691.68 476.53 693.60
  A 1.40 1.26 -41.9 0 0 476.50 693.88
  Q 476.50 745.50 476.49 762.00
  C 476.48 770.62 478.51 774.98 487.57 776.16
  Q 493.35 776.90 499.01 777.01
  A 0.67 0.66 -89.6 0 1 499.66 777.68
  L 499.66 782.79
  A 0.59 0.59 0.0 0 1 499.07 783.38
  L 439.22 783.38
  A 0.73 0.72 -0.0 0 1 438.49 782.66
  L 438.49 777.66
  A 0.72 0.72 0.0 0 1 439.22 776.94
  Q 442.59 777.02 448.19 776.20
  C 457.17 774.88 457.74 767.68 457.75 760.00
  Q 457.83 713.63 457.67 685.02
  Q 457.63 678.11 456.03 674.34
  Q 453.86 669.24 447.45 670.29
  Q 442.26 671.15 438.45 673.00
  A 1.30 1.30 0.0 0 1 436.66 672.28
  L 435.37 668.75
  A 1.23 1.21 -21.4 0 1 436.06 667.20
  Q 457.13 658.58 469.24 653.52
  C 471.99 652.38 473.24 652.36 475.96 652.31
  A 0.66 0.66 0.0 0 1 476.63 652.97
  L 476.63 675.68
  A 0.22 0.22 0.0 0 0 477.03 675.80
  Z"
/>
<path fill="#d6dbcc" d="
  M 744.88 705.42
  A 0.74 0.73 -89.2 0 1 744.15 706.14
  L 656.66 706.12
  A 0.51 0.51 0.0 0 0 656.15 706.62
  C 656.05 733.51 666.30 770.53 700.53 769.30
  Q 720.64 768.58 731.05 751.24
  Q 736.22 742.62 738.64 732.36
  A 0.26 0.26 0.0 0 1 739.02 732.20
  L 744.05 735.10
  A 0.28 0.27 -71.8 0 1 744.18 735.37
  C 739.70 765.80 716.62 793.93 682.51 786.27
  C 659.78 781.17 645.18 762.18 640.94 739.87
  C 634.71 707.02 644.15 662.80 682.19 653.99
  C 706.69 648.32 731.14 657.74 740.70 681.84
  Q 745.28 693.41 744.88 705.42
  Z
  M 657.08 696.38
  Q 672.07 696.36 711.66 696.40
  C 718.29 696.41 722.61 696.15 721.76 688.46
  C 720.16 673.87 710.18 664.48 695.61 662.73
  C 675.73 660.34 658.95 676.48 656.59 695.82
  A 0.50 0.49 -86.4 0 0 657.08 696.38
  Z"
/>
<path fill="#d6dbcc" d="
  M 628.14 706.13
  L 540.65 706.13
  A 0.51 0.51 0.0 0 0 540.14 706.63
  C 540.05 733.52 550.31 770.54 584.54 769.30
  Q 604.64 768.57 615.05 751.23
  Q 620.22 742.61 622.64 732.35
  A 0.26 0.26 0.0 0 1 623.02 732.19
  L 628.05 735.09
  A 0.28 0.27 -71.8 0 1 628.18 735.36
  C 623.70 765.79 600.63 793.92 566.52 786.27
  C 543.79 781.18 529.18 762.19 524.94 739.88
  C 518.70 707.04 528.13 662.81 566.17 654.00
  C 590.66 648.32 615.12 657.73 624.68 681.83
  Q 629.27 693.40 628.87 705.41
  A 0.74 0.73 -89.2 0 1 628.14 706.13
  Z
  M 541.08 696.38
  Q 556.07 696.36 595.67 696.40
  C 602.30 696.41 606.62 696.15 605.77 688.46
  C 604.17 673.87 594.19 664.48 579.62 662.73
  C 559.74 660.34 542.95 676.48 540.59 695.82
  A 0.50 0.49 -86.4 0 0 541.08 696.38
  Z"
/>
<path fill="#25412a" d="
  M 541.08 696.38
  A 0.50 0.49 -86.4 0 1 540.59 695.82
  C 542.95 676.48 559.74 660.34 579.62 662.73
  C 594.19 664.48 604.17 673.87 605.77 688.46
  C 606.62 696.15 602.30 696.41 595.67 696.40
  Q 556.07 696.36 541.08 696.38
  Z"
/>
<path fill="#25412a" d="
  M 657.08 696.38
  A 0.50 0.49 -86.4 0 1 656.59 695.82
  C 658.95 676.48 675.73 660.34 695.61 662.73
  C 710.18 664.48 720.16 673.87 721.76 688.46
  C 722.61 696.15 718.29 696.41 711.66 696.40
  Q 672.07 696.36 657.08 696.38
  Z"
/>
</svg>
