<?xml version="1.0" encoding="UTF-8" standalone="no"?>
<!DOCTYPE svg PUBLIC "-//W3C//DTD SVG 1.1//EN" "http://www.w3.org/Graphics/SVG/1.1/DTD/svg11.dtd">
<svg xmlns="http://www.w3.org/2000/svg" version="1.1" viewBox="0.00 0.00 282.00 283.00">
<path fill="#000000" d="
  M 281.50 141.38
  A 140.66 140.66 0.0 0 1 140.84 282.04
  A 140.66 140.66 0.0 0 1 0.18 141.38
  A 140.66 140.66 0.0 0 1 140.84 0.72
  A 140.66 140.66 0.0 0 1 281.50 141.38
  Z
  M 279.43 141.38
  A 138.59 138.59 0.0 0 0 140.84 2.79
  A 138.59 138.59 0.0 0 0 2.25 141.38
  A 138.59 138.59 0.0 0 0 140.84 279.97
  A 138.59 138.59 0.0 0 0 279.43 141.38
  Z"
/>
<path fill="#000000" d="
  M 116.62 44.25
  Q 120.64 44.25 124.38 44.23
  A 0.66 0.66 0.0 0 1 125.04 44.89
  L 125.04 45.63
  A 0.63 0.63 0.0 0 1 124.41 46.26
  L 118.32 46.26
  A 0.56 0.55 -0.0 0 0 117.76 46.81
  L 117.76 64.22
  A 0.72 0.71 83.5 0 1 117.21 64.92
  Q 116.93 64.98 116.63 64.98
  Q 116.33 64.98 116.05 64.92
  A 0.72 0.71 -83.5 0 1 115.50 64.22
  L 115.49 46.81
  A 0.56 0.55 -0.0 0 0 114.93 46.26
  L 108.84 46.27
  A 0.63 0.63 0.0 0 1 108.21 45.64
  L 108.21 44.90
  A 0.66 0.66 0.0 0 1 108.87 44.23
  Q 112.60 44.26 116.62 44.25
  Z"
/>
<path fill="#000000" d="
  M 138.57 53.36
  Q 143.65 53.36 144.14 53.34
  A 0.73 0.72 -1.4 0 0 144.83 52.61
  L 144.83 44.69
  A 0.63 0.61 79.8 0 1 145.22 44.11
  Q 145.70 43.93 146.60 44.10
  A 0.75 0.74 -89.0 0 1 147.19 44.72
  Q 147.20 44.76 147.20 54.49
  Q 147.19 64.22 147.18 64.26
  A 0.75 0.74 89.1 0 1 146.59 64.88
  Q 145.69 65.05 145.21 64.87
  A 0.63 0.61 -79.7 0 1 144.82 64.29
  L 144.83 56.37
  A 0.73 0.72 1.4 0 0 144.14 55.64
  Q 143.64 55.62 138.57 55.62
  Q 133.50 55.61 133.00 55.64
  A 0.73 0.72 -1.4 0 0 132.31 56.36
  L 132.31 64.28
  A 0.63 0.61 79.8 0 1 131.92 64.86
  Q 131.44 65.04 130.54 64.87
  A 0.75 0.74 -89.0 0 1 129.95 64.25
  Q 129.94 64.21 129.95 54.48
  Q 129.95 44.76 129.96 44.71
  A 0.75 0.74 89.1 0 1 130.55 44.10
  Q 131.45 43.93 131.93 44.11
  A 0.63 0.61 -79.7 0 1 132.32 44.69
  L 132.31 52.61
  A 0.73 0.72 1.4 0 0 133.00 53.33
  Q 133.50 53.36 138.57 53.36
  Z"
/>
<path fill="#000000" d="
  M 168.24 54.49
  Q 168.24 54.87 168.21 55.05
  A 0.69 0.68 4.0 0 1 167.53 55.64
  L 158.15 55.64
  A 0.38 0.37 -90.0 0 0 157.78 56.02
  L 157.78 62.34
  A 0.41 0.41 0.0 0 0 158.19 62.75
  L 169.40 62.75
  A 0.52 0.52 0.0 0 1 169.92 63.27
  L 169.92 64.36
  A 0.51 0.51 0.0 0 1 169.42 64.87
  L 156.00 64.90
  A 0.49 0.49 0.0 0 1 155.51 64.33
  Q 155.53 64.16 155.50 54.53
  Q 155.47 44.91 155.44 44.73
  A 0.49 0.49 0.0 0 1 155.93 44.16
  L 169.35 44.11
  A 0.51 0.51 0.0 0 1 169.86 44.62
  L 169.86 45.71
  A 0.52 0.52 0.0 0 1 169.35 46.23
  L 158.14 46.30
  A 0.41 0.41 0.0 0 0 157.73 46.71
  L 157.77 53.03
  A 0.38 0.37 89.6 0 0 158.14 53.41
  L 167.52 53.35
  A 0.69 0.68 -4.4 0 1 168.21 53.93
  Q 168.24 54.11 168.24 54.49
  Z"
/>
<path fill="#000000" d="
  M 83.20 115.11
  A 0.27 0.27 0.0 0 1 82.98 115.53
  L 80.93 115.53
  A 1.04 1.04 0.0 0 1 80.09 115.10
  L 73.20 105.45
  A 1.11 1.10 -17.7 0 0 72.30 104.99
  L 61.36 104.99
  A 0.61 0.60 -0.0 0 0 60.75 105.59
  L 60.75 114.95
  A 0.58 0.58 0.0 0 1 60.17 115.53
  L 58.82 115.53
  A 0.57 0.57 0.0 0 1 58.25 114.96
  L 58.25 83.89
  A 0.57 0.56 89.5 0 1 58.80 83.32
  C 68.65 83.12 81.43 81.51 82.76 92.58
  C 83.40 97.96 81.28 102.18 76.09 104.15
  A 0.46 0.46 0.0 0 0 75.87 104.85
  L 83.20 115.11
  Z
  M 60.76 86.25
  L 60.76 102.23
  A 0.50 0.50 0.0 0 0 61.26 102.73
  L 71.39 102.73
  A 8.87 8.04 0.0 0 0 80.26 94.69
  L 80.26 93.79
  A 8.87 8.04 0.0 0 0 71.39 85.75
  L 61.26 85.75
  A 0.50 0.50 0.0 0 0 60.76 86.25
  Z"
/>
<path fill="#000000" d="
  M 93.96 115.03
  L 93.96 83.72
  A 0.47 0.47 0.0 0 1 94.43 83.25
  L 115.25 83.25
  A 0.47 0.47 0.0 0 1 115.72 83.72
  L 115.72 85.30
  A 0.47 0.47 0.0 0 1 115.25 85.77
  L 97.05 85.77
  A 0.47 0.47 0.0 0 0 96.58 86.24
  L 96.58 97.53
  A 0.47 0.47 0.0 0 0 97.05 98.00
  L 113.24 98.00
  A 0.47 0.47 0.0 0 1 113.71 98.47
  L 113.71 99.78
  A 0.47 0.47 0.0 0 1 113.24 100.25
  L 97.04 100.25
  A 0.47 0.47 0.0 0 0 96.57 100.72
  L 96.57 112.77
  A 0.47 0.47 0.0 0 0 97.04 113.24
  L 115.83 113.24
  A 0.47 0.47 0.0 0 1 116.30 113.71
  L 116.30 115.03
  A 0.47 0.47 0.0 0 1 115.83 115.50
  L 94.43 115.50
  A 0.47 0.47 0.0 0 1 93.96 115.03
  Z"
/>
<path fill="#000000" d="
  M 146.55 101.50
  L 130.44 101.50
  A 0.44 0.44 0.0 0 0 130.00 101.94
  L 130.00 115.08
  A 0.44 0.44 0.0 0 1 129.56 115.52
  L 127.68 115.52
  A 0.44 0.44 0.0 0 1 127.24 115.08
  L 127.24 83.68
  A 0.44 0.44 0.0 0 1 127.68 83.24
  L 148.52 83.24
  A 0.44 0.44 0.0 0 1 148.96 83.68
  L 148.96 85.32
  A 0.44 0.44 0.0 0 1 148.52 85.76
  L 130.44 85.76
  A 0.44 0.44 0.0 0 0 130.00 86.20
  L 130.00 98.56
  A 0.44 0.44 0.0 0 0 130.44 99.00
  L 146.55 99.00
  A 0.44 0.44 0.0 0 1 146.99 99.44
  L 146.99 101.06
  A 0.44 0.44 0.0 0 1 146.55 101.50
  Z"
/>
<rect fill="#000000" x="159.00" y="83.22" width="2.50" height="32.32" rx="0.51"/>
<path fill="#000000" d="
  M 195.86 113.25
  A 0.46 0.46 0.0 0 1 196.32 113.72
  L 196.30 115.06
  A 0.46 0.46 0.0 0 1 195.84 115.51
  L 175.63 115.48
  A 0.41 0.41 0.0 0 1 175.22 115.07
  L 175.26 83.80
  A 0.53 0.53 0.0 0 1 175.78 83.27
  L 177.48 83.25
  A 0.53 0.52 0.1 0 1 178.01 83.77
  L 177.98 112.92
  A 0.32 0.32 0.0 0 0 178.30 113.24
  L 195.86 113.25
  Z"
/>
<path fill="#000000" d="
  M 225.45 115.51
  L 205.22 115.51
  A 0.47 0.47 0.0 0 1 204.75 115.04
  L 204.75 83.68
  A 0.47 0.47 0.0 0 1 205.22 83.21
  L 207.04 83.21
  A 0.47 0.47 0.0 0 1 207.51 83.68
  L 207.51 112.78
  A 0.47 0.47 0.0 0 0 207.98 113.25
  L 225.45 113.25
  A 0.47 0.47 0.0 0 1 225.92 113.72
  L 225.92 115.04
  A 0.47 0.47 0.0 0 1 225.45 115.51
  Z"
/>
<path fill="#000000" d="
  M 57.38 141.63
  L 56.84 142.56
  A 0.63 0.63 0.0 0 1 55.95 142.78
  C 51.85 140.20 44.39 139.05 40.60 142.68
  C 36.77 146.35 39.33 150.94 43.87 152.19
  C 50.41 153.99 59.63 154.92 58.77 163.09
  C 57.67 173.47 41.24 172.12 35.59 166.73
  A 0.67 0.65 37.1 0 1 35.47 165.93
  L 36.03 164.97
  A 0.56 0.55 34.3 0 1 36.86 164.82
  Q 42.57 169.45 50.01 168.29
  C 52.52 167.90 55.25 166.64 55.95 164.04
  C 58.92 153.02 37.09 158.52 36.27 147.94
  Q 35.70 140.72 42.91 138.66
  Q 49.89 136.67 57.08 140.57
  A 0.78 0.77 -61.2 0 1 57.38 141.63
  Z"
/>
<path fill="#000000" d="
  M 106.1206 154.2922
  A 16.94 16.53 -179.5 0 1 123.2042 137.9106
  A 16.94 16.53 -179.5 0 1 139.9994 154.5878
  A 16.94 16.53 -179.5 0 1 122.9158 170.9694
  A 16.94 16.53 -179.5 0 1 106.1206 154.2922
  Z
  M 108.7978 153.9775
  A 14.25 14.05 -178.1 0 0 122.5742 168.4923
  A 14.25 14.05 -178.1 0 0 137.2822 154.9225
  A 14.25 14.05 -178.1 0 0 123.5058 140.4077
  A 14.25 14.05 -178.1 0 0 108.7978 153.9775
  Z"
/>
<path fill="#000000" d="
  M 82.45 153.07
  Q 91.28 153.08 92.79 153.05
  A 0.29 0.29 0.0 0 0 93.07 152.76
  L 93.07 138.77
  A 0.68 0.68 0.0 0 1 93.60 138.11
  Q 94.75 137.87 95.46 138.21
  A 0.46 0.45 -77.9 0 1 95.71 138.60
  Q 95.72 138.74 95.70 154.21
  Q 95.69 169.67 95.68 169.81
  A 0.46 0.45 78.0 0 1 95.43 170.21
  Q 94.72 170.55 93.57 170.30
  A 0.68 0.68 0.0 0 1 93.04 169.64
  L 93.07 155.65
  A 0.29 0.29 0.0 0 0 92.78 155.36
  Q 91.28 155.33 82.44 155.32
  Q 73.61 155.31 72.11 155.34
  A 0.29 0.29 0.0 0 0 71.82 155.63
  L 71.82 169.62
  A 0.68 0.68 0.0 0 1 71.29 170.28
  Q 70.14 170.52 69.43 170.18
  A 0.46 0.45 -77.9 0 1 69.18 169.79
  Q 69.17 169.64 69.19 154.18
  Q 69.21 138.72 69.21 138.57
  A 0.46 0.45 78.0 0 1 69.46 138.18
  Q 70.17 137.84 71.32 138.08
  A 0.68 0.68 0.0 0 1 71.85 138.75
  L 71.82 152.74
  A 0.29 0.29 0.0 0 0 72.11 153.03
  Q 73.61 153.06 82.45 153.07
  Z"
/>
<path fill="#000000" d="
  M 153.06 169.96
  A 0.54 0.54 0.0 0 1 152.52 170.50
  L 151.03 170.50
  A 0.56 0.56 0.0 0 1 150.47 169.94
  L 150.47 138.64
  A 0.36 0.35 89.2 0 1 150.81 138.28
  Q 157.85 138.04 163.88 138.39
  Q 171.96 138.87 174.38 144.92
  C 176.71 150.73 174.34 157.09 168.05 159.29
  C 164.27 160.61 157.48 159.91 153.63 159.99
  A 0.59 0.59 0.0 0 0 153.06 160.58
  L 153.06 169.96
  Z
  M 152.96 141.28
  L 153.04 157.26
  A 0.50 0.50 0.0 0 0 153.54 157.76
  L 163.69 157.71
  A 8.87 8.00 -0.3 0 0 172.52 149.66
  L 172.52 148.68
  A 8.87 8.00 -0.3 0 0 163.61 140.73
  L 153.46 140.78
  A 0.50 0.50 0.0 0 0 152.96 141.28
  Z"
/>
<path fill="#000000" d="
  M 188.20 170.01
  A 0.54 0.54 0.0 0 1 187.67 170.56
  L 186.18 170.56
  A 0.56 0.56 0.0 0 1 185.61 170.01
  L 185.46 138.69
  A 0.36 0.35 88.9 0 1 185.80 138.33
  Q 192.84 138.05 198.87 138.37
  Q 206.96 138.81 209.41 144.85
  C 211.77 150.65 209.43 157.03 203.15 159.26
  C 199.37 160.60 192.58 159.93 188.73 160.03
  A 0.59 0.59 0.0 0 0 188.16 160.63
  L 188.20 170.01
  Z
  M 188.24 141.27
  L 188.26 157.23
  A 0.50 0.50 0.0 0 0 188.76 157.73
  L 198.70 157.71
  A 8.82 7.76 -0.1 0 0 207.51 149.93
  L 207.51 148.49
  A 8.82 7.76 -0.1 0 0 198.68 140.75
  L 188.74 140.77
  A 0.50 0.50 0.0 0 0 188.24 141.27
  Z"
/>
<path fill="#000000" d="
  M 242.95 168.71
  L 242.92 170.08
  A 0.45 0.44 -88.8 0 1 242.48 170.51
  L 220.96 170.52
  A 0.40 0.40 0.0 0 1 220.56 170.12
  L 220.52 138.67
  A 0.42 0.42 0.0 0 1 220.94 138.25
  L 241.80 138.23
  A 0.49 0.49 0.0 0 1 242.29 138.71
  L 242.30 140.21
  A 0.55 0.54 -0.1 0 1 241.75 140.75
  L 223.75 140.76
  A 0.59 0.59 0.0 0 0 223.16 141.35
  L 223.15 152.40
  A 0.61 0.61 0.0 0 0 223.77 153.01
  L 239.78 152.99
  A 0.59 0.58 2.1 0 1 240.37 153.62
  L 240.29 154.73
  A 0.57 0.57 0.0 0 1 239.72 155.26
  L 223.56 155.25
  A 0.39 0.38 89.9 0 0 223.18 155.64
  L 223.18 167.65
  A 0.61 0.61 0.0 0 0 223.79 168.26
  L 242.48 168.23
  A 0.47 0.47 0.0 0 1 242.95 168.71
  Z"
/>
<rect fill="#000000" x="63.47" y="193.75" width="154.80" height="2.02" rx="0.52"/>
<path fill="#000000" d="
  M 91.27 221.57
  Q 91.03 221.10 90.31 219.42
  A 1.10 1.10 0.0 0 0 89.30 218.76
  L 84.07 218.76
  A 0.58 0.58 0.0 0 0 83.49 219.34
  L 83.49 224.22
  A 0.76 0.75 -85.6 0 0 84.12 224.97
  Q 85.29 225.17 86.83 224.81
  Q 87.56 224.63 87.80 223.87
  Q 88.02 223.16 88.15 222.36
  A 0.28 0.27 5.0 0 1 88.42 222.14
  L 88.68 222.14
  A 0.31 0.31 0.0 0 1 88.99 222.45
  L 88.99 228.99
  A 0.25 0.25 0.0 0 1 88.74 229.24
  L 88.39 229.24
  A 0.40 0.40 0.0 0 1 87.99 228.80
  Q 88.22 226.32 85.51 226.37
  Q 84.86 226.38 84.49 226.28
  Q 84.22 226.20 84.09 226.23
  A 0.80 0.80 0.0 0 0 83.48 227.01
  L 83.52 231.99
  A 1.71 1.70 1.8 0 0 85.11 233.68
  C 87.49 233.86 91.15 234.56 91.94 231.43
  A 0.44 0.44 0.0 0 1 92.80 231.54
  L 92.80 234.39
  A 0.60 0.59 90.0 0 1 92.21 234.99
  L 78.38 234.99
  A 0.23 0.23 0.0 0 1 78.15 234.76
  L 78.15 234.43
  A 0.32 0.32 0.0 0 1 78.48 234.11
  C 81.24 234.19 80.72 232.11 80.74 230.24
  Q 80.78 224.17 80.71 219.53
  A 1.20 1.18 -67.7 0 0 80.39 218.74
  Q 79.82 218.14 78.54 218.31
  A 0.40 0.39 -3.8 0 1 78.09 217.92
  L 78.09 217.60
  A 0.37 0.37 0.0 0 1 78.46 217.23
  L 91.16 217.23
  A 0.64 0.64 0.0 0 1 91.80 217.87
  L 91.80 221.44
  A 0.28 0.28 0.0 0 1 91.27 221.57
  Z"
/>
<path fill="#000000" d="
  M 143.85 232.55
  A 0.24 0.24 0.0 0 0 144.00 232.98
  L 149.66 232.98
  A 0.58 0.58 0.0 0 1 150.24 233.59
  Q 150.15 235.40 149.50 237.13
  A 0.32 0.32 0.0 0 1 148.99 237.26
  Q 148.61 236.94 148.62 236.76
  A 1.64 1.57 4.5 0 0 147.15 235.11
  Q 145.69 234.97 139.53 234.98
  A 0.43 0.43 0.0 0 1 139.26 234.21
  C 142.70 231.51 146.44 229.29 147.26 226.09
  A 1.63 1.62 39.6 0 0 147.15 224.95
  Q 145.97 222.55 143.05 223.47
  A 2.08 2.03 -75.5 0 0 142.21 223.98
  Q 141.09 225.12 141.70 227.04
  A 0.98 0.98 0.0 0 1 140.01 227.96
  C 137.80 225.26 139.43 222.41 142.58 221.88
  C 145.83 221.32 150.88 222.45 149.82 226.76
  C 149.28 228.95 145.61 231.19 143.85 232.55
  Z"
/>
<path fill="#000000" d="
  M 169.82 228.62
  A 6.96 6.96 0.0 0 1 162.86 235.58
  A 6.96 6.96 0.0 0 1 155.90 228.62
  A 6.96 6.96 0.0 0 1 162.86 221.66
  A 6.96 6.96 0.0 0 1 169.82 228.62
  Z
  M 167.70 228.60
  A 4.86 4.86 0.0 0 0 162.84 223.74
  A 4.86 4.86 0.0 0 0 157.98 228.60
  A 4.86 4.86 0.0 0 0 162.84 233.46
  A 4.86 4.86 0.0 0 0 167.70 228.60
  Z"
/>
<path fill="#000000" d="
  M 201.13 228.62
  A 6.95 6.95 0.0 0 1 194.18 235.57
  A 6.95 6.95 0.0 0 1 187.23 228.62
  A 6.95 6.95 0.0 0 1 194.18 221.67
  A 6.95 6.95 0.0 0 1 201.13 228.62
  Z
  M 194.2273 223.6500
  A 4.95 4.76 -89.8 0 0 189.4500 228.5834
  A 4.95 4.76 -89.8 0 0 194.1927 233.5500
  A 4.95 4.76 -89.8 0 0 198.9700 228.6166
  A 4.95 4.76 -89.8 0 0 194.2273 223.6500
  Z"
/>
<path fill="#000000" d="
  M 108.62 226.23
  A 0.41 0.41 0.0 0 1 108.47 225.44
  Q 110.46 224.63 110.71 222.51
  A 0.59 0.59 0.0 0 1 111.30 221.99
  L 111.55 221.99
  A 0.44 0.44 0.0 0 1 111.99 222.43
  L 111.99 224.54
  A 0.50 0.50 0.0 0 0 112.49 225.04
  L 114.12 225.04
  A 0.48 0.47 90.0 0 1 114.59 225.52
  L 114.59 225.92
  A 0.32 0.32 0.0 0 1 114.27 226.24
  L 112.55 226.24
  A 0.53 0.53 0.0 0 0 112.02 226.77
  L 112.02 232.77
  A 1.17 1.17 0.0 0 0 113.82 233.76
  Q 114.66 233.23 115.20 233.12
  A 0.46 0.46 0.0 0 1 115.50 233.98
  L 112.86 235.33
  A 1.44 1.42 40.4 0 1 111.76 235.41
  C 108.68 234.39 109.85 229.21 109.77 226.92
  A 0.71 0.71 0.0 0 0 109.06 226.23
  L 108.62 226.23
  Z"
/>
<path fill="#000000" d="
  M 178.51 222.18
  Q 180.39 222.16 182.26 222.18
  A 0.23 0.23 0.0 0 1 182.48 222.40
  A 0.28 0.27 84.2 0 1 182.26 222.69
  C 178.82 223.29 179.76 226.00 179.76 228.55
  C 179.76 231.11 178.81 233.81 182.24 234.43
  A 0.28 0.27 -84.1 0 1 182.47 234.72
  A 0.23 0.23 0.0 0 1 182.24 234.94
  Q 180.38 234.95 178.50 234.93
  Q 176.61 234.94 174.75 234.93
  A 0.23 0.23 0.0 0 1 174.52 234.71
  A 0.28 0.27 84.2 0 1 174.75 234.42
  C 178.18 233.81 177.24 231.11 177.25 228.55
  C 177.25 226.00 178.19 223.29 174.76 222.68
  A 0.28 0.27 -84.1 0 1 174.53 222.39
  A 0.23 0.23 0.0 0 1 174.76 222.17
  Q 176.62 222.16 178.51 222.18
  Z"
/>
<path fill="#000000" d="
  M 103.83 225.06
  L 103.83 227.89
  A 0.29 0.29 0.0 0 1 103.30 228.06
  L 102.00 226.24
  A 0.78 0.77 78.1 0 0 101.51 225.92
  Q 100.30 225.70 99.69 226.92
  A 0.73 0.73 0.0 0 0 99.98 227.87
  L 103.50 229.90
  A 1.30 1.28 -87.8 0 1 104.01 230.46
  C 106.04 234.83 102.12 236.26 98.58 234.91
  A 0.64 0.64 0.0 0 0 97.79 235.19
  L 97.65 235.43
  A 0.24 0.24 0.0 0 1 97.21 235.31
  L 97.21 231.34
  A 0.27 0.27 0.0 0 1 97.73 231.24
  Q 98.57 233.36 100.05 234.13
  A 1.39 1.38 82.2 0 0 101.70 231.95
  Q 101.11 231.32 98.85 230.15
  A 1.89 1.81 -3.3 0 1 98.22 229.61
  C 96.11 226.78 98.69 223.47 101.75 224.81
  Q 102.64 225.20 102.82 225.02
  Q 103.00 224.84 103.09 224.75
  A 0.44 0.43 67.6 0 1 103.83 225.06
  Z"
/>
<rect fill="#000000" x="-1.25" y="-1.33" transform="translate(122.43,233.56) rotate(-44.3)" width="2.50" height="2.66" rx="0.64"/>
</svg>
